<svg xmlns="http://www.w3.org/2000/svg" width="146" height="140" viewBox="0 0 146 140" fill="none"><path fill-rule="evenodd" clip-rule="evenodd" d="M74.276 118.629C76.0694 103.439 85.5298 89.3135 94.6413 84.7053C88.0191 76.2 84.235 65.0104 83.1392 56.5042H72.982H62.8743C61.7291 65.0104 57.945 76.2 51.3228 84.7053C60.4343 89.3134 69.9449 103.439 71.7374 118.629V83.7944C70.2435 83.2885 69.1477 81.8196 69.1477 80.0981C69.1477 77.9718 70.8909 76.2001 72.982 76.2001C75.1233 76.2001 76.8164 77.9718 76.8164 80.0981C76.8164 81.8196 75.77 83.2885 74.276 83.7944V118.629ZM72.982 39.2393L99.4719 46.53L83.1392 50.985V54.8337H62.8743V50.985L60.0361 50.2255L73.131 47.4408C73.4304 47.3907 73.6295 47.087 73.5299 46.7324V46.6813C73.4797 46.8845 73.3299 47.036 73.131 47.0869L57.8454 50.3275V56.0991C58.0948 56.3015 58.2938 56.6052 58.2938 57.0101C58.2938 57.2635 58.1934 57.5171 58.0445 57.7194L58.1934 58.1745L59.1394 61.466H57.2474H55.3554L56.3014 58.1745L56.4512 57.6684C56.3014 57.466 56.2028 57.2635 56.2028 57.0101C56.2028 56.6052 56.4018 56.3016 56.6995 56.0991V50.4286C56.6995 49.9727 56.6502 49.4156 56.8492 49.3645L46.4922 46.5297L72.982 39.2393Z" fill="#890C25"></path><path fill-rule="evenodd" clip-rule="evenodd" d="M109.579 125.312C106.492 124.957 103.604 126.274 101.812 128.603C103.007 131.286 105.546 133.261 108.633 133.615C111.72 134.02 114.608 132.653 116.4 130.324C115.206 127.641 112.666 125.666 109.579 125.312ZM97.8284 131.59C94.8907 130.577 91.7541 131.235 89.5625 133.159C90.2108 136.046 92.2517 138.526 95.1894 139.539C98.1772 140.552 101.264 139.843 103.505 137.919C102.858 135.084 100.816 132.603 97.8284 131.59ZM112.218 29.2137C113.861 31.4923 116.4 32.7077 118.94 32.7579L119.339 33.2138C126.708 42.1247 131.189 52.7573 132.632 63.8457C134.077 74.8831 132.484 86.3763 127.654 96.9076C122.823 107.439 115.206 116.046 105.994 122.071C98.5751 126.83 90.0609 129.97 81.1484 131.033V132.754C90.4097 131.691 99.2226 128.502 106.89 123.54C116.4 117.363 124.268 108.451 129.197 97.6161C134.177 86.7812 135.819 74.9842 134.325 63.5923C132.832 52.2002 128.251 41.2641 120.683 32.0996L120.235 31.5935C120.882 29.1125 120.434 26.378 118.791 24.2015C116.948 21.6694 113.961 20.455 111.073 20.7075C110.027 23.4421 110.326 26.6825 112.218 29.2137ZM113.413 42.226C116.55 42.1248 119.189 40.3522 120.634 37.7701C119.039 35.2891 116.251 33.7198 113.164 33.821C110.027 33.9223 107.338 35.6948 105.944 38.2771C107.538 40.758 110.326 42.3272 113.413 42.226ZM119.289 52.7062C122.327 53.3646 125.314 52.3014 127.305 50.175C126.359 47.3904 124.02 45.1628 120.981 44.5045C117.944 43.8462 114.907 44.9094 112.916 47.0357C113.911 49.8205 116.201 52.048 119.289 52.7062ZM122.425 64.3007C125.263 65.7185 128.401 65.4149 130.89 63.8457C130.592 60.9089 128.848 58.1743 126.06 56.7574C123.272 55.3897 120.086 55.6433 117.646 57.2635C117.944 60.2003 119.637 62.8837 122.425 64.3007ZM122.774 76.3511C125.165 78.3762 128.3 78.8832 131.04 77.9714C131.487 75.0353 130.492 71.9463 128.101 69.9211C125.712 67.8959 122.526 67.3899 119.786 68.3009C119.339 71.2377 120.384 74.2758 122.774 76.3511ZM120.235 88.0978C122.027 90.68 124.965 91.9456 127.902 91.6921C128.998 88.9584 128.75 85.7691 126.907 83.1868C125.064 80.6046 122.127 79.3381 119.238 79.5916C118.143 82.3261 118.393 85.5156 120.235 88.0978ZM114.957 98.8826C116.102 101.819 118.641 103.794 121.529 104.249C123.273 101.92 123.769 98.6794 122.624 95.7433C121.43 92.8064 118.89 90.8825 116.052 90.3764C114.309 92.7562 113.811 95.9457 114.957 98.8826ZM107.289 108.046C107.687 111.186 109.729 113.717 112.368 114.882C114.608 113.008 115.853 110.021 115.454 106.882C115.007 103.743 113.015 101.261 110.326 100.047C108.085 101.92 106.841 104.907 107.289 108.046ZM97.6292 115.084C97.2804 118.223 98.6748 121.16 100.965 122.932C103.604 121.666 105.496 119.084 105.845 115.945C106.193 112.806 104.799 109.869 102.509 108.046C99.9194 109.312 97.978 111.894 97.6292 115.084ZM86.6257 119.489C85.5299 122.476 86.1764 125.666 87.9698 127.944C90.8079 127.387 93.2973 125.362 94.393 122.375C95.4377 119.388 94.8406 116.198 93.0488 113.92C90.1604 114.476 87.6704 116.502 86.6257 119.489ZM123.172 30.4794C123.123 33.6187 124.766 36.4544 127.205 38.0235C129.696 36.5046 131.389 33.7198 131.438 30.5805C131.438 27.391 129.845 24.6064 127.405 23.0371C124.865 24.5553 123.222 27.2899 123.172 30.4794ZM130.541 41.6689C129.845 44.7572 130.841 47.8464 132.932 49.9217C135.67 48.9598 137.911 46.631 138.558 43.5427C139.255 40.4536 138.259 37.3653 136.168 35.2892C133.43 36.2519 131.189 38.5806 130.541 41.6689ZM135.421 54.2253C134.126 57.1112 134.475 60.3015 136.119 62.7826C139.006 62.4279 141.645 60.6052 142.94 57.7193C144.235 54.8334 143.886 51.5929 142.242 49.162C139.355 49.5168 136.716 51.3394 135.421 54.2253ZM137.662 67.491C135.819 70.0222 135.471 73.2628 136.566 75.9972C139.454 76.2498 142.442 75.0353 144.284 72.5032C146.127 69.972 146.475 66.7315 145.38 63.997C142.492 63.7445 139.504 64.9591 137.662 67.491ZM137.114 80.9584C134.774 83.0345 133.828 86.1738 134.325 89.0597C137.114 89.9205 140.251 89.3633 142.591 87.2872C144.931 85.1608 145.877 82.0726 145.38 79.1867C142.591 78.275 139.454 78.8831 137.114 80.9584ZM133.878 94.0217C131.138 95.5909 129.595 98.3756 129.446 101.363C131.986 102.78 135.173 102.882 137.91 101.363C140.6 99.7935 142.193 96.9576 142.292 94.0217C139.753 92.5528 136.566 92.4517 133.878 94.0217ZM128.003 106.122C125.015 107.034 122.924 109.464 122.177 112.35C124.367 114.274 127.455 115.084 130.443 114.122C133.43 113.16 135.521 110.73 136.268 107.895C134.077 105.92 130.99 105.16 128.003 106.122ZM119.786 116.705C116.7 116.957 114.11 118.932 112.815 121.565C114.558 123.944 117.447 125.362 120.533 125.059C123.62 124.755 126.209 122.831 127.504 120.198C125.762 117.818 122.873 116.4 119.786 116.705Z" fill="#890C25"></path><path fill-rule="evenodd" clip-rule="evenodd" d="M48.1354 131.59C51.0731 130.577 54.2097 131.235 56.4507 133.159C55.8032 136.046 53.7623 138.526 50.7745 139.539C47.8369 140.552 44.7002 139.843 42.5086 137.919C43.1569 135.084 45.1978 132.603 48.1354 131.59ZM33.7952 29.2137C32.1524 31.4923 29.6129 32.7077 27.0232 32.7579L26.625 33.2138C19.306 42.1247 14.7749 52.7573 13.3312 63.8457C11.8866 74.8831 13.5302 86.3763 18.3098 96.9076C23.1403 107.439 30.7579 116.046 40.0192 122.071C47.4377 126.83 55.9026 129.97 64.8654 131.033V132.754C55.5539 131.691 46.7912 128.502 39.0732 123.54C29.5634 117.363 21.7451 108.451 16.7665 97.6161C11.8372 86.7812 10.1442 74.9842 11.6382 63.5923C13.1321 52.2004 17.7619 41.2641 25.3302 32.0996L25.7292 31.5935C25.1312 29.1125 25.5794 26.378 27.173 24.2015C29.065 21.6694 32.0027 20.455 34.891 20.7075C35.9868 23.4421 35.6378 26.6825 33.7952 29.2137ZM32.5505 42.226C29.4631 42.1248 26.7747 40.3522 25.3302 37.7701C26.9738 35.2891 29.7125 33.7198 32.8491 33.821C35.9364 33.9223 38.6256 35.6948 40.0685 38.2771C38.4761 40.758 35.6873 42.3272 32.5505 42.226ZM26.7254 52.7062C23.6873 53.3646 20.6502 52.3014 18.6586 50.175C19.6046 47.3904 21.9442 45.1628 24.9823 44.5045C28.0194 43.8462 31.0565 44.9094 33.0482 47.0357C32.1021 49.8205 29.7626 52.048 26.7254 52.7062ZM23.5385 64.3007C20.7497 65.7185 17.5628 65.4149 15.1228 63.8457C15.3722 60.9089 17.1154 58.1743 19.9033 56.7574C22.6912 55.3897 25.8781 55.6433 28.3181 57.2635C28.0696 60.2003 26.3264 62.8837 23.5385 64.3007ZM23.239 76.3511C20.8492 78.3762 17.6632 78.8832 14.9238 77.9714C14.4763 75.0353 15.521 71.9463 17.9116 69.9211C20.3022 67.8959 23.4381 67.3899 26.1775 68.3009C26.625 71.2377 25.5794 74.2758 23.239 76.3511ZM25.7794 88.0978C23.9367 90.68 20.9982 91.9456 18.1108 91.6921C17.015 88.9584 17.2643 85.7691 19.1061 83.1868C20.8995 80.6046 23.8371 79.3381 26.7254 79.5916C27.8706 82.3261 27.6212 85.5156 25.7794 88.0978ZM31.0567 98.8826C29.8613 101.819 27.3226 103.794 24.4846 104.249C22.7414 101.92 22.2437 98.6794 23.3888 95.7433C24.534 92.8064 27.0734 90.8825 29.9617 90.3764C31.7041 92.7562 32.2025 95.9457 31.0567 98.8826ZM38.7245 108.046C38.277 111.186 36.2845 113.717 33.5962 114.882C31.3553 113.008 30.1107 110.021 30.559 106.882C30.9572 103.743 32.999 101.261 35.638 100.047C37.8788 101.92 39.1727 104.907 38.7245 108.046ZM48.3345 115.084C48.6833 118.223 47.3392 121.16 45.0489 122.932C42.4099 121.666 40.4676 119.084 40.169 115.945C39.8202 112.806 41.1643 109.869 43.4546 108.046C46.0936 109.312 48.0359 111.894 48.3345 115.084ZM59.3883 119.489C60.4339 122.476 59.8367 125.666 58.0441 127.944C55.1558 127.387 52.6666 125.362 51.621 122.375C50.526 119.388 51.1726 116.198 52.9652 113.92C55.8032 114.476 58.2934 116.502 59.3883 119.489ZM22.8409 30.4794C22.8409 33.6187 21.2483 36.4544 18.8084 38.0235C16.268 36.5046 14.6252 33.7198 14.5749 30.5805C14.5257 27.391 16.1693 24.6064 18.6092 23.0371C21.0986 24.5553 22.7915 27.2899 22.8409 30.4794ZM15.4718 41.6689C16.1694 44.7572 15.1228 47.8464 13.082 49.9217C10.2941 48.9598 8.10255 46.631 7.40579 43.5427C6.70903 40.4536 7.75374 37.3653 9.84489 35.2892C12.5843 36.2519 14.775 38.5806 15.4718 41.6689ZM10.5424 54.2253C11.8866 57.1112 11.4885 60.3015 9.89498 62.7826C7.00664 62.4279 4.36766 60.6052 3.07359 57.7193C1.77877 54.8334 2.12759 51.5929 3.72099 49.162C6.60859 49.5168 9.24758 51.3394 10.5424 54.2253ZM8.35179 67.491C10.1937 70.0222 10.493 73.2628 9.39736 75.9972C6.51001 76.2498 3.57145 75.0353 1.7288 72.5032C-0.163319 69.972 -0.461052 66.7315 0.633875 63.997C3.52209 63.7445 6.45967 64.9591 8.35179 67.491ZM8.84941 80.9584C11.1899 83.0345 12.1359 86.1738 11.6875 89.0597C8.89877 89.9205 5.76291 89.3633 3.42166 87.2872C1.08214 85.1608 0.0867865 82.0726 0.583538 79.1867C3.37231 78.275 6.50989 78.8831 8.84941 80.9584ZM12.1359 94.0217C14.8251 95.5909 16.4178 98.3756 16.5181 101.363C13.9778 102.78 10.7909 102.882 8.10243 101.363C5.36388 99.7935 3.82057 96.9576 3.67176 94.0217C6.21043 92.5528 9.39737 92.4517 12.1359 94.0217ZM18.0112 106.122C20.9981 107.034 23.0901 109.464 23.787 112.35C21.5963 114.274 18.5089 115.084 15.5211 114.122C12.5843 113.16 10.4429 110.73 9.74618 107.895C11.9369 105.92 15.0241 105.16 18.0112 106.122ZM26.2268 116.705C29.3135 116.957 31.9031 118.932 33.1485 121.565C31.4055 123.944 28.5673 125.362 25.4306 125.059C22.3433 124.755 19.8037 122.831 18.5089 120.198C20.252 117.818 23.0901 116.4 26.2268 116.705ZM36.4342 125.312C39.5216 124.906 42.4099 126.274 44.2016 128.603C43.0071 131.286 40.4675 133.261 37.3803 133.615C34.2937 134.02 31.3553 132.653 29.5636 130.324C30.8073 127.641 33.2975 125.666 36.4342 125.312Z" fill="#890C25"></path><path fill-rule="evenodd" clip-rule="evenodd" d="M72.9824 0L75.5219 8.05026L83.8371 8.00021L77.1153 12.9614L79.7041 21.0116L72.9822 15.9994L66.3098 21.0116L68.85 12.9614L62.1275 8.00021L70.4427 8.05026L72.9824 0ZM53.2644 12.7087L51.6218 17.9232H46.2441L50.5761 21.1127L48.9325 26.3282L53.2644 23.1387L57.6459 26.3282L55.9529 21.1127L60.3351 17.9232H54.9575L53.2644 12.7087ZM92.7003 12.7087L94.3933 17.9232H99.7701L95.3887 21.1127L97.0817 26.3282L92.7004 23.1387L88.3683 26.3282L90.012 21.1127L85.68 17.9232H91.0568L92.7003 12.7087Z" fill="#890C25"></path><path fill-rule="evenodd" clip-rule="evenodd" d="M72.9817 128.451C74.8737 128.451 76.3676 129.97 76.3676 131.894C76.3676 133.818 74.8737 135.337 72.9817 135.337C71.1398 135.337 69.5957 133.818 69.5957 131.894C69.5956 129.97 71.1398 128.451 72.9817 128.451Z" fill="#890C25"></path></svg>