<svg xmlns="http://www.w3.org/2000/svg" width="44" height="44" viewBox="0 0 44 44" fill="none"><g clip-path="url(#clip0_1039_2384)"><path d="M34.7017 28.746L32.1193 27.9878L26.5011 24.3182V23.4774C28.1277 22.2504 29.2447 20.375 29.4524 18.2253C30.2682 18.094 30.8932 17.3851 30.8932 16.5329V14.2208C30.8932 14.2118 30.8922 14.2031 30.8918 14.1941V11.2652C31.2168 11.0325 31.4231 10.6534 31.4231 10.2282V7.54783L35.3003 6.8874C35.9375 6.77886 36.3958 6.27277 36.4408 5.62798C36.4857 4.98319 36.1021 4.41841 35.4862 4.22256L22.4154 0.0650762C22.1426 -0.0217207 21.8545 -0.0216348 21.5819 0.0649902L8.51094 4.22256C7.89502 4.41841 7.5114 4.98319 7.55634 5.6279C7.58487 6.03756 7.78064 6.39076 8.0828 6.62211V10.1272H8.05083C7.31477 10.1272 6.71596 10.7261 6.71596 11.4621V13.202L5.85427 18.2596C5.70534 19.1343 6.37909 19.935 7.26854 19.935H10.186C11.0735 19.935 11.7496 19.1362 11.6003 18.2595L10.7386 13.202V11.4621C10.7386 10.7261 10.1398 10.1272 9.40374 10.1272H9.37186V7.0023L12.5768 7.54817V10.2282C12.5768 10.6516 12.7821 11.0301 13.1056 11.2632L13.1068 14.221V16.5329C13.1068 17.3852 13.7318 18.094 14.5476 18.2253C14.7552 20.3738 15.871 22.2484 17.496 23.4754V24.3202L11.879 27.9891L9.29873 28.7465C6.53764 29.5568 4.58806 32.0917 4.58806 35.0384V36.9592C4.58806 37.3152 4.87655 37.6038 5.23259 37.6038C5.58863 37.6038 5.87712 37.3153 5.87712 36.9592V35.0384C5.87712 32.716 7.43337 30.6373 9.66181 29.9833L12.066 29.2776L21.6709 34.9849C21.8659 35.1008 22.1239 35.1069 22.3293 34.9849L31.9348 29.2772L34.3388 29.9829C36.5669 30.6371 38.1231 32.7157 38.1231 35.0379V41.2631C38.1231 42.0615 37.4735 42.7111 36.6751 42.7111H33.8342V39.9329C33.8342 39.577 33.5457 39.2884 33.1897 39.2884C32.8337 39.2884 32.5452 39.5769 32.5452 39.9329V42.7111H11.452V39.9329C11.452 39.577 11.1635 39.2884 10.8074 39.2884C10.4514 39.2884 10.1629 39.5769 10.1629 39.9329V42.7111H7.325C6.52655 42.7111 5.87695 42.0615 5.87695 41.2631V39.9721C5.87695 39.6162 5.58846 39.3276 5.23242 39.3276C4.87638 39.3276 4.58789 39.6161 4.58789 39.9721V41.263C4.58789 42.7722 5.81568 44 7.32491 44H36.6749C38.1841 44 39.4119 42.7722 39.4119 41.263V35.0379C39.4119 32.1607 37.5289 29.5761 34.7017 28.746ZM10.1859 18.646H7.26854C7.17839 18.646 7.10964 18.5654 7.12494 18.476L7.90439 13.901H9.55009L10.3295 18.4759C10.3448 18.5652 10.2765 18.646 10.1859 18.646ZM9.44955 11.4621V12.612H8.00485V11.4621C8.00485 11.4368 8.02539 11.4162 8.05074 11.4162H9.40357C9.42901 11.4161 9.44955 11.4368 9.44955 11.4621ZM19.6948 32.0694L19.9514 32.4637L13.3712 28.5538L17.5479 25.8257C17.7373 28.048 18.4698 30.1866 19.6948 32.0694ZM19.6904 29.2872C21.2074 29.5027 22.7916 29.5029 24.3095 29.2872C24.0162 30.0089 23.6548 30.7053 23.2246 31.3665L21.9999 33.2489L20.7752 31.3665C20.3451 30.7053 19.9837 30.0089 19.6904 29.2872ZM24.305 32.0694C25.5301 30.1866 26.2626 28.048 26.4519 25.8257L30.6286 28.5537L24.0485 32.4637L24.305 32.0694ZM28.0752 11.5052H29.6028V13.5762H28.8446C28.4203 13.5762 28.0751 13.231 28.0751 12.8068V11.5052H28.0752ZM8.90161 5.45095L21.9728 1.29329C21.9895 1.28797 22.0076 1.28788 22.0246 1.29338L35.0957 5.45095C35.1227 5.45955 35.1597 5.47123 35.155 5.53835C35.1503 5.60538 35.112 5.61183 35.084 5.61664L30.7624 6.35269L29.1399 6.15203C28.7869 6.10829 28.4649 6.3594 28.4212 6.7126C28.3775 7.06589 28.6286 7.38764 28.9818 7.43129L30.1342 7.57387V10.2163L13.8658 10.2157V7.57378L20.5351 6.74852C21.5066 6.62847 22.4914 6.62847 23.4622 6.74852L25.9864 7.06073C26.3396 7.10448 26.6615 6.85345 26.7052 6.50025C26.7489 6.14696 26.4979 5.82521 26.1447 5.78147L23.6205 5.46926C22.5448 5.33614 21.4534 5.33614 20.3769 5.46926L13.236 6.35287L8.91313 5.61664C8.88511 5.61183 8.84687 5.60538 8.84214 5.53835C8.8375 5.47123 8.87454 5.45946 8.90161 5.45095ZM14.3954 13.5762L14.3946 11.5052H15.9247V12.8069C15.9247 13.231 15.5796 13.5763 15.1552 13.5763L14.3954 13.5762ZM15.814 17.894C15.7808 17.3692 15.3446 16.9581 14.821 16.9581C14.5865 16.9581 14.3957 16.7673 14.3957 16.5329V14.8652H15.1552C16.2902 14.8652 17.2137 13.9418 17.2137 12.8069V11.5052H26.7861V12.8069C26.7861 13.9418 27.7096 14.8652 28.8446 14.8652H29.6041V16.5329C29.6041 16.7673 29.4133 16.9581 29.1788 16.9581C28.6552 16.9581 28.219 17.3692 28.1858 17.8941C27.9805 21.1485 25.2633 23.6978 21.9999 23.6978C18.7364 23.6978 16.0193 21.1485 15.814 17.894ZM21.9999 24.9868C23.1463 24.9868 24.2358 24.7247 25.2121 24.2586V24.6671C25.2121 25.7691 25.0634 26.8561 24.7772 27.9045C23.0256 28.2385 21.0454 28.252 19.2227 27.9045C18.9364 26.8562 18.7878 25.7692 18.7878 24.6671C18.7878 24.6534 18.7859 24.6401 18.785 24.6266C18.7849 24.624 18.7851 24.6213 18.7849 24.6186V24.2573C19.762 24.7242 20.8525 24.9868 21.9999 24.9868Z" fill="white"></path></g><defs><clipPath id="clip0_1039_2384"><rect width="44" height="44" fill="white"></rect></clipPath></defs></svg>