<svg xmlns="http://www.w3.org/2000/svg" width="118" height="118" viewBox="0 0 118 118" fill="none"><g clip-path="url(#clip0_1014_2708)"><path d="M111.87 102.443V91.1273H106.2V83.591H102.42V42.0836H106.2V34.5473H113.759V20.0047L59 0.460938L4.24062 20.0047V34.5473H11.8V42.0836H15.5797V83.591H11.8V91.1273H6.13047V102.443H0.460938V117.539H117.539V102.443H111.87ZM102.443 38.3039H87.3477V34.5242H102.443V38.3039ZM66.5594 83.591V42.0836H70.3391V34.5473H83.568V42.0836H87.3477V83.591H83.568V91.1273H70.3391V83.591H66.5594ZM30.6754 83.591V42.0836H34.4551V34.5473H47.684V42.0836H51.4637V83.591H47.684V91.1273H34.4551V83.591H30.6754ZM15.5797 38.3039V34.5242H30.6754V38.3039H15.5797ZM26.8957 42.0836V83.591H19.3363V42.0836H26.8957ZM51.4406 87.3477H66.5363V91.1273H51.4406V87.3477ZM55.2203 83.591V42.0836H62.7797V83.591H55.2203ZM51.4406 38.3039V34.5242H66.5363V38.3039H51.4406ZM87.3246 87.3477H102.42V91.1273H87.3246V87.3477ZM91.1043 83.591V42.0836H98.6637V83.591H91.1043ZM8.02031 30.7676V22.6551L59 4.47109L109.98 22.6551V30.7676H8.02031ZM15.5797 87.3477H30.6754V91.1273H15.5797V87.3477ZM9.91016 94.907H108.09V102.443H9.91016V94.907ZM113.759 113.759H4.24062V106.223H113.759V113.759Z" fill="#890C25"></path></g><defs><clipPath id="clip0_1014_2708"><rect width="118" height="118" fill="white"></rect></clipPath></defs></svg>