<svg xmlns="http://www.w3.org/2000/svg" width="118" height="118" viewBox="0 0 118 118" fill="none"><path d="M115.966 55.2161H89.9445V50.1909C89.9432 49.457 89.5467 48.7805 88.9069 48.4209L61.0345 32.7554V24.7802H66.5479V27.8116C66.5479 28.9351 67.4589 29.8461 68.5824 29.8461H85.2041C86.3277 29.8456 87.2381 28.9344 87.2379 27.8108C87.2379 27.5753 87.1967 27.3416 87.1165 27.1199L85.4483 22.3795L87.1369 17.7409C87.5189 16.6843 86.9721 15.518 85.9154 15.136C85.6939 15.0559 85.4602 15.015 85.2245 15.0147H77.6562V12.0647C77.6562 10.9412 76.7453 10.0302 75.6217 10.0302H61.0345V7.54815C61.0345 6.42461 60.1235 5.51367 59 5.51367C57.8765 5.51367 56.9655 6.42461 56.9655 7.54815V32.7554L29.0931 48.4006C28.4533 48.7602 28.0568 49.4366 28.0555 50.1706V55.1957H2.03448C0.91094 55.1957 0 56.1067 0 57.2302V110.452C0 111.576 0.91094 112.487 2.03448 112.487H115.966C117.089 112.487 118 111.576 118 110.452V57.2506C118 56.127 117.089 55.2161 115.966 55.2161ZM77.6562 22.7457L77.5748 22.6644V19.1651H82.2134L81.3793 21.7692C81.2127 22.2224 81.2127 22.7198 81.3793 23.173L82.3355 25.7771H70.6169V24.7802H75.6217C76.7453 24.7802 77.6562 23.8693 77.6562 22.7457ZM61.0345 14.0992H73.5872V17.1306V20.7113H61.0345V14.0992ZM28.0555 108.418H4.06897V59.285H28.0555V108.418ZM56.9655 108.418H46.2845V85.184H56.9655V108.418ZM71.7155 108.418H61.0345V85.184H71.7155V108.418ZM85.9569 108.418H75.7845V83.1495C75.7845 82.026 74.8735 81.1151 73.75 81.1151H44.25C43.1265 81.1151 42.2155 82.026 42.2155 83.1495V108.418H32.0431V51.4523L59 36.2751L85.8755 51.3709L85.9569 57.2302V108.418ZM113.931 108.418H89.9445V59.285H113.931V108.418Z" fill="#890C25"></path><path d="M58.9991 42.5C54.2877 42.5112 50.4746 46.3335 50.4746 51.0448C50.4858 55.7529 54.3114 59.5602 59.0194 59.549C63.7275 59.5378 67.5348 55.7122 67.5236 51.0041C67.5124 46.3042 63.699 42.5 58.9991 42.5ZM58.9991 55.48C56.5384 55.4688 54.5527 53.4648 54.5639 51.0041C54.5751 48.5595 56.5542 46.5802 58.9991 46.569C61.4631 46.5802 63.4546 48.5808 63.4546 51.0448H63.475C63.4638 53.5055 61.4598 55.4912 58.9991 55.48Z" fill="#890C25"></path><path d="M13.0416 63.7607H8.97266V71.8987H13.0416V63.7607Z" fill="#890C25"></path><path d="M23.0709 63.7607H19.002V71.8987H23.0709V63.7607Z" fill="#890C25"></path><path d="M46.3664 63.7607H38.2285V67.8297H46.3664V63.7607Z" fill="#890C25"></path><path d="M63.0696 63.7607H54.9316V67.8297H63.0696V63.7607Z" fill="#890C25"></path><path d="M79.7727 63.7607H71.6348V67.8297H79.7727V63.7607Z" fill="#890C25"></path><path d="M46.3664 73.2412H38.2285V77.3102H46.3664V73.2412Z" fill="#890C25"></path><path d="M63.0696 73.2412H54.9316V77.3102H63.0696V73.2412Z" fill="#890C25"></path><path d="M79.7727 73.2412H71.6348V77.3102H79.7727V73.2412Z" fill="#890C25"></path><path d="M13.0416 79.7725H8.97266V87.9104H13.0416V79.7725Z" fill="#890C25"></path><path d="M23.0709 79.7725H19.002V87.9104H23.0709V79.7725Z" fill="#890C25"></path><path d="M13.0416 95.8037H8.97266V103.942H13.0416V95.8037Z" fill="#890C25"></path><path d="M23.0709 95.8037H19.002V103.942H23.0709V95.8037Z" fill="#890C25"></path><path d="M98.9987 63.7607H94.9297V71.8987H98.9987V63.7607Z" fill="#890C25"></path><path d="M109.028 63.7607H104.959V71.8987H109.028V63.7607Z" fill="#890C25"></path><path d="M98.9987 79.7725H94.9297V87.9104H98.9987V79.7725Z" fill="#890C25"></path><path d="M109.028 79.7725H104.959V87.9104H109.028V79.7725Z" fill="#890C25"></path><path d="M98.9987 95.8037H94.9297V103.942H98.9987V95.8037Z" fill="#890C25"></path><path d="M109.028 95.8037H104.959V103.942H109.028V95.8037Z" fill="#890C25"></path></svg>