<svg xmlns="http://www.w3.org/2000/svg" width="50" height="50" viewBox="0 0 50 50" fill="none"><path d="M45.7797 35.4785V22.502L46.15 22.2863C46.9359 21.8301 47.4047 21.016 47.4047 20.1082C47.4047 19.2004 46.9359 18.3848 46.15 17.9285L27.1547 6.89414C25.5562 5.96289 23.5672 5.96445 21.9687 6.89414L2.97187 17.9301C2.1875 18.3863 1.71875 19.2004 1.71875 20.1082C1.71875 21.016 2.1875 21.8301 2.97187 22.2879L8.73125 25.6348V33.4145C8.73125 35.2207 9.70312 36.9004 11.2656 37.802L19.1937 42.3723C20.8484 43.3254 22.7047 43.8035 24.5609 43.8035C26.4172 43.8035 28.2719 43.327 29.9281 42.3723L37.8547 37.802C39.4187 36.902 40.3906 35.2207 40.3906 33.4145V25.6332L42.9672 24.1363V35.4785C42.3062 35.9285 41.8719 36.6863 41.8719 37.5473C41.8719 38.9285 42.9922 40.0488 44.3734 40.0488C45.7547 40.0488 46.875 38.9285 46.875 37.5473C46.875 36.6879 46.4406 35.9301 45.7797 35.4785ZM37.5797 33.4129H37.5781C37.5781 34.216 37.1484 34.9629 36.4516 35.3629L28.525 39.9332C26.0812 41.341 23.0422 41.341 20.6 39.9332L12.6719 35.3629C11.9766 34.9629 11.5453 34.216 11.5453 33.4129V27.2676L21.9687 33.3238C22.7687 33.7879 23.6656 34.0207 24.5625 34.0207C25.4594 34.0207 26.3562 33.7895 27.1562 33.3238L37.5797 27.2676V33.4129ZM25.7422 30.8926C25.0141 31.316 24.1094 31.316 23.3812 30.8926L4.82031 20.1082L23.3797 9.32383C24.1078 8.90039 25.0125 8.90039 25.7406 9.32383L44.3016 20.1066L25.7422 30.8926Z" fill="white"></path></svg>