<svg xmlns="http://www.w3.org/2000/svg" width="527" height="340" viewBox="0 0 527 340" fill="none"><path d="M132.1 350.687C166.97 380.341 228.044 373.363 268.238 335.199C308.431 297.036 312.823 241.853 277.953 212.198C243.083 182.544 182.009 189.522 141.815 227.686C101.567 265.902 97.2301 321.032 132.1 350.687ZM276.116 213.943C310.096 242.84 305.796 296.599 266.55 333.864C227.359 371.076 167.731 377.882 133.826 349.048C99.8461 320.15 104.145 266.391 143.392 229.127C182.564 191.798 242.136 185.045 276.116 213.943Z" fill="url(#paint0_linear_1_1237)" fill-opacity="0.04"></path><path d="M123.313 357.595C166.754 394.539 243.081 385.823 293.362 338.082C343.643 290.34 349.071 221.429 305.629 184.485C262.187 147.54 185.86 156.257 135.635 203.945C85.4105 251.634 79.7967 320.588 123.313 357.595ZM303.843 186.18C346.468 222.43 341.004 289.904 291.728 336.692C242.452 383.48 167.705 392.033 125.08 355.783C82.4551 319.534 87.8444 251.996 137.121 205.208C186.471 158.484 261.218 149.931 303.843 186.18Z" fill="url(#paint1_linear_1_1237)" fill-opacity="0.04"></path><path d="M109.988 366.706C162.076 411.003 253.41 400.648 313.514 343.58C373.617 286.512 380.095 203.992 328.008 159.695C275.92 115.398 184.585 125.753 124.482 182.821C64.3793 239.889 57.8262 322.346 109.988 366.706ZM326.17 161.44C377.44 205.042 371.054 286.137 311.953 342.253C252.853 398.369 163.096 408.563 111.826 364.961C60.556 321.359 66.9424 240.264 126.043 184.148C185.143 128.032 274.899 117.838 326.17 161.44Z" fill="url(#paint2_linear_1_1237)" fill-opacity="0.04"></path><path d="M109.325 374.932C169.928 426.47 276.291 414.265 346.497 347.604C416.647 280.996 424.411 184.837 363.808 133.299C303.132 81.6974 196.713 93.956 126.562 160.564C56.3563 227.225 48.6485 323.331 109.325 374.932ZM362.022 134.995C421.735 185.776 414.085 280.625 344.939 346.279C275.793 411.933 170.823 424.018 111.111 373.236C51.3986 322.455 58.9928 227.659 128.194 161.952C197.34 96.2976 302.236 84.15 362.022 134.995Z" fill="url(#paint3_linear_1_1237)" fill-opacity="0.04"></path><defs><linearGradient id="paint0_linear_1_1237" x1="326.534" y1="185.913" x2="149.487" y2="367.627" gradientUnits="userSpaceOnUse"><stop stop-color="#4834C4"></stop><stop offset="0.0001" stop-color="#EFECFF"></stop><stop offset="1" stop-color="#F5F3FF"></stop></linearGradient><linearGradient id="paint1_linear_1_1237" x1="366.329" y1="151.606" x2="144.99" y2="378.721" gradientUnits="userSpaceOnUse"><stop stop-color="#4834C4"></stop><stop offset="0.0001" stop-color="#EFECFF"></stop><stop offset="1" stop-color="#F5F3FF"></stop></linearGradient><linearGradient id="paint2_linear_1_1237" x1="400.631" y1="120.408" x2="135.989" y2="392.038" gradientUnits="userSpaceOnUse"><stop stop-color="#4834C4"></stop><stop offset="0.0001" stop-color="#EFECFF"></stop><stop offset="1" stop-color="#F5F3FF"></stop></linearGradient><linearGradient id="paint3_linear_1_1237" x1="448.479" y1="87.3574" x2="139.503" y2="404.351" gradientUnits="userSpaceOnUse"><stop stop-color="#4834C4"></stop><stop offset="0.0001" stop-color="#EFECFF"></stop><stop offset="1" stop-color="#F5F3FF"></stop></linearGradient></defs></svg>