<svg xmlns="http://www.w3.org/2000/svg" width="50" height="50" viewBox="0 0 50 50" fill="none"><path d="M38.9319 34.4394C43.1733 30.1979 45.5092 24.5583 45.5092 18.5596C45.5092 12.5608 43.1733 6.92132 38.9319 2.67981C37.79 1.5379 35.9316 1.5378 34.7893 2.67981C34.4952 2.9739 34.2773 3.31574 34.1347 3.68043C28.2023 -0.747181 20.1041 -1.26712 13.5945 2.59515C13.1307 2.87031 12.9778 3.46933 13.253 3.93312C13.528 4.39701 14.1273 4.54992 14.5909 4.27467C16.8311 2.94549 19.2817 2.19649 21.7515 2.00345L21.3476 3.44082C21.0161 4.62071 20.9022 4.86442 20.0704 5.60981C19.7657 5.88291 19.4609 6.16216 19.1661 6.43224C18.8758 6.69831 18.5756 6.97336 18.2794 7.23865C18.2661 7.25056 18.2533 7.26277 18.2407 7.27536C17.5285 7.98755 17.3101 8.91436 17.6419 9.81812C18.0965 11.0568 19.5727 12.0837 21.0756 12.2069L26.8095 12.6768C28.3307 12.8013 29.1857 12.6307 30.229 11.2895C30.3725 11.1049 30.5716 10.9882 30.7752 10.9692C30.9926 10.9489 31.2126 11.0365 31.431 11.2294L34.3154 13.7774C35.0601 14.4353 35.8187 15.0124 36.7785 15.0123C37.1757 15.0123 37.6077 14.9134 38.0871 14.6804L39.0661 14.2047C40.5665 19.7586 39.141 25.9452 34.7893 30.2969C34.4256 30.6606 34.0485 31.0026 33.6606 31.3254L32.7126 30.4143C31.6414 29.3848 30.641 29.242 29.4673 29.3447L24.3903 29.7888C23.4222 29.8737 23.3685 29.7641 23.1093 29.2383L22.6606 28.3276C22.6271 28.2597 22.6236 28.1702 22.6518 28.0994C22.6742 28.0429 22.7107 28.0089 22.7738 27.9853L24.5411 27.3278C25.9583 26.8006 26.3702 26.0227 26.6708 24.681L27.4344 21.2733C27.6301 20.4006 27.4369 19.5418 26.9047 18.9171C26.3909 18.3138 25.6366 18.0099 24.7819 18.0626L21.9239 18.2371C20.5338 18.3219 19.6604 18.9391 19.1752 20.1796L18.5445 21.7923C18.2357 22.5818 18.0898 22.7013 17.243 22.8575L15.8023 23.1233C15.6773 23.1465 15.2976 23.2163 15.0668 22.5786L14.2308 20.2685C13.747 18.9318 12.773 18.2175 11.253 18.0846L6.4694 17.6663C6.60873 15.0594 7.36467 12.462 8.76669 10.0989C9.04184 9.63514 8.88893 9.03611 8.42514 8.76096C7.96135 8.48581 7.36232 8.63862 7.08717 9.10251C3.22509 15.612 3.74503 23.7099 8.17274 29.6423C7.80805 29.7849 7.46621 30.0027 7.17212 30.2968C6.03002 31.4389 6.03002 33.2972 7.17212 34.4394C11.1826 38.4498 16.4432 40.7553 22.0753 40.9947V43.6532H15.2406C13.6254 43.6532 12.3113 44.9673 12.3113 46.5824V49.0235C12.3113 49.5627 12.7485 49.9999 13.2877 49.9999H36.7214C37.2606 49.9999 37.6978 49.5627 37.6978 49.0235V46.5824C37.6978 44.9673 36.3838 43.6532 34.7687 43.6532H27.9338V40.4869C32.0688 39.5751 35.8658 37.5055 38.9319 34.4394ZM37.2335 12.924C36.8073 13.1312 36.6308 13.2171 35.6082 12.3138L32.7237 9.76588C32.1032 9.21763 31.3466 8.95459 30.5935 9.02498C29.8552 9.09392 29.1605 9.48233 28.6874 10.0906C28.1538 10.7766 28.0418 10.8184 26.9688 10.7307L21.235 10.2607C20.4381 10.1954 19.6485 9.61796 19.4751 9.14547C19.4279 9.01668 19.4026 8.88331 19.6055 8.6727C19.902 8.40663 20.1984 8.13509 20.4853 7.87224C20.7762 7.60578 21.0769 7.33014 21.3736 7.06436C22.5757 5.98709 22.8367 5.35995 23.2275 3.96925L23.7893 1.96996C27.8248 2.15148 31.7707 3.80424 34.7892 6.8227C36.4144 8.44793 37.6312 10.3293 38.4403 12.3378L37.2335 12.924ZM12.3946 20.9329L13.2307 23.2429C13.7129 24.5757 14.8617 25.2827 16.1567 25.0436L17.5974 24.7778C19.1095 24.4989 19.8074 23.9249 20.3633 22.5035L20.9939 20.8909C21.1763 20.4245 21.3223 20.2302 22.0429 20.1863L24.9009 20.0118C25.1345 19.9974 25.309 20.0552 25.4182 20.1835C25.5466 20.3343 25.588 20.5821 25.5288 20.8463L24.7651 24.254C24.5517 25.2067 24.466 25.2722 23.8601 25.4975L22.0928 26.1551C21.5103 26.3718 21.0643 26.806 20.8369 27.3779C20.6039 27.9642 20.6299 28.6249 20.9086 29.1906L21.3574 30.1016C22.1099 31.6287 23.1408 31.8586 24.5603 31.7342L29.6372 31.2901C30.4277 31.2211 30.8064 31.2909 31.3592 31.8223L32.064 32.4997C25.6359 36.6574 16.9415 35.9237 11.3146 30.2968C8.37866 27.3608 6.73469 23.5473 6.48004 19.6275L11.0827 20.03C11.9379 20.1047 12.2035 20.4049 12.3946 20.9329ZM8.55315 31.6777C8.93365 31.2971 9.55289 31.297 9.93359 31.6773C9.93369 31.6774 9.93378 31.6776 9.93398 31.6777C13.5507 35.2943 18.3013 37.1027 23.0521 37.1027C27.8027 37.1027 32.5535 35.2943 36.1702 31.6777C43.4034 24.4444 43.4034 12.6749 36.1702 5.44157C35.9858 5.25713 35.8842 5.01196 35.8842 4.75116C35.8842 4.49036 35.9858 4.24518 36.1702 4.06074C36.5509 3.68004 37.1704 3.68014 37.551 4.06074C45.5458 12.0555 45.5458 25.0638 37.551 33.0585C29.5564 41.0533 16.5481 41.0533 8.55324 33.0585C8.17245 32.6778 8.17245 32.0584 8.55315 31.6777ZM35.7452 46.5825V48.0472H14.2643V46.5825C14.2643 46.0442 14.7024 45.6061 15.2407 45.6061H34.7689C35.3073 45.6061 35.7452 46.0442 35.7452 46.5825ZM25.9812 43.6533H24.0283V40.9948C24.6848 40.9668 25.3362 40.9109 25.9812 40.8274V43.6533Z" fill="white"></path><path d="M10.6252 7.10906C11.1645 7.10906 11.6016 6.67193 11.6016 6.13266C11.6016 5.59339 11.1645 5.15625 10.6252 5.15625H10.6245C10.0852 5.15625 9.64844 5.59339 9.64844 6.13266C9.64844 6.67193 10.086 7.10906 10.6252 7.10906Z" fill="white"></path></svg>