<svg xmlns="http://www.w3.org/2000/svg" width="57" height="60" viewBox="0 0 57 60" fill="none"><path d="M32.4102 4.73834L50.9152 41.7123C51.5532 42.9873 53.1052 43.5044 54.3802 42.8664C55.6562 42.2284 56.1722 40.6763 55.5342 39.4013L37.0292 2.42733C36.3912 1.15233 34.8392 0.635339 33.5642 1.27334C32.2882 1.91134 31.7722 3.46334 32.4102 4.73834Z" stroke="#DDD8F9" stroke-width="1.3" stroke-miterlimit="10" stroke-linejoin="round"></path><path d="M33.564 1.27332L1 17.5713L21.817 59.1643L54.381 42.8663" stroke="#DDD8F9" stroke-width="1.3" stroke-miterlimit="10" stroke-linejoin="round"></path><path d="M30.0509 11.8832L9.84375 21.998L14.1788 30.6584L34.3859 20.5435L30.0509 11.8832Z" stroke="#DDD8F9" stroke-width="1.3" stroke-miterlimit="10" stroke-linejoin="round"></path><path d="M16.0078 34.323L36.2158 24.209" stroke="#DDD8F9" stroke-width="1.3" stroke-miterlimit="10" stroke-linejoin="round"></path><path d="M17.1367 36.575L37.3447 26.4609" stroke="#DDD8F9" stroke-width="1.3" stroke-miterlimit="10" stroke-linejoin="round"></path><path d="M48.9107 37.7109L43.1367 40.6009L45.2027 42.1659L45.1597 44.6419L50.9137 41.7129" stroke="#DDD8F9" stroke-width="1.3" stroke-miterlimit="10" stroke-linejoin="round"></path></svg>