<svg xmlns="http://www.w3.org/2000/svg" width="32" height="48" viewBox="0 0 32 48" fill="none"><path d="M31.33 16.165C31.33 7.79001 24.54 1 16.165 1C7.78998 1 1 7.79001 1 16.165C1 20.092 2.49299 23.671 4.94199 26.364C5.43099 32.138 10.265 36.674 16.165 36.674C22.066 36.674 26.899 32.138 27.388 26.364C29.838 23.671 31.33 20.092 31.33 16.165Z" stroke="#F8C6D0" stroke-width="1.3" stroke-miterlimit="10" stroke-linejoin="round"></path><path d="M8.55078 33.6768L9.33478 41.3578C9.33478 41.3578 16.6348 46.0988 23.1208 40.9188L23.7818 33.6758" stroke="#F8C6D0" stroke-width="1.3" stroke-miterlimit="10" stroke-linejoin="round"></path><path d="M11.5234 42.4132L11.8224 45.3432C11.8224 45.3432 16.3924 48.3112 20.4524 45.0682L20.8034 42.3672" stroke="#F8C6D0" stroke-width="1.3" stroke-miterlimit="10" stroke-linejoin="round"></path><path d="M9.01562 38.5098C9.01562 38.5098 16.0746 43.9778 23.3126 38.5098" stroke="#F8C6D0" stroke-width="1.3" stroke-miterlimit="10" stroke-linejoin="round"></path><path d="M13.7304 36.4308L12.4634 24.2378C12.4634 24.2378 12.1334 22.7838 10.6534 23.2878C9.14341 23.8018 9.16341 26.1748 10.8084 26.8888C12.2644 27.5208 15.4404 27.4388 15.4404 27.4388L15.1244 26.7078C15.1244 26.7078 14.3154 25.2928 15.2294 24.1348C16.0194 23.1348 18.3644 23.8678 17.2284 26.7078L16.8874 27.4388C16.8874 27.4388 20.0634 27.5208 21.5194 26.8888C23.1634 26.1748 23.1844 23.8018 21.6744 23.2878C20.1944 22.7838 19.8644 24.2378 19.8644 24.2378L18.5974 36.4308" stroke="#F8C6D0" stroke-width="1.3" stroke-miterlimit="10" stroke-linejoin="round"></path><path d="M16.1641 13.4536C16.1641 13.2286 16.1641 8.84766 16.1641 8.84766" stroke="#F8C6D0" stroke-width="1.3" stroke-miterlimit="10" stroke-linejoin="round"></path><path d="M22.7812 14.9699L24.4102 11.8809" stroke="#F8C6D0" stroke-width="1.3" stroke-miterlimit="10" stroke-linejoin="round"></path><path d="M9.36337 14.9699L7.73438 11.8809" stroke="#F8C6D0" stroke-width="1.3" stroke-miterlimit="10" stroke-linejoin="round"></path></svg>