<svg xmlns="http://www.w3.org/2000/svg" width="52" height="50" viewBox="0 0 52 50" fill="none"><path d="M48.4555 49.9993H43.9766C43.5602 49.9993 43.2148 49.6545 43.2148 49.2387C43.2148 48.8228 43.5602 48.478 43.9766 48.478H48.4555C49.5727 48.478 50.4766 47.5754 50.4766 46.4598V43.9547C50.4766 43.9344 50.4562 43.9141 50.4359 43.9141H1.56406C1.54375 43.9141 1.52344 43.9344 1.52344 43.9547V46.4598C1.52344 47.5754 2.42734 48.478 3.54453 48.478H40.3914C40.8078 48.478 41.1531 48.8228 41.1531 49.2387C41.1531 49.6545 40.8078 49.9993 40.3914 49.9993H3.54453C1.59453 49.9993 0 48.4172 0 46.4598V43.9547C0 43.0926 0.700781 42.3928 1.56406 42.3928H50.4359C51.2992 42.3928 52 43.0926 52 43.9547V46.4598C52 48.4172 50.4055 49.9993 48.4555 49.9993Z" fill="white"></path><path d="M29.9821 46.9565H22.0094C21.1969 46.9565 20.4352 46.5508 19.9782 45.8713L18.4446 43.5792C18.2922 43.3459 18.2719 43.0417 18.404 42.7983C18.536 42.5548 18.7899 42.3926 19.0743 42.3926H32.8868C33.1711 42.3926 33.425 42.5447 33.5571 42.7983C33.6891 43.0518 33.679 43.3459 33.5165 43.5792L31.9829 45.8713C31.5563 46.5508 30.8047 46.9565 29.9821 46.9565ZM20.5165 43.9139L21.2579 45.0295C21.4305 45.283 21.7149 45.4352 22.0196 45.4352H29.9922C30.2969 45.4352 30.5813 45.283 30.754 45.0295L31.4954 43.9139H20.5165Z" fill="white"></path><path d="M3.65625 19.1677C3.23984 19.1677 2.89453 18.8228 2.89453 18.407V15.1616C2.89453 13.3969 4.32656 11.9668 6.09375 11.9668H32.7031C33.1195 11.9668 33.4648 12.3117 33.4648 12.7275C33.4648 13.1433 33.1195 13.4881 32.7031 13.4881H6.09375C5.16953 13.4881 4.41797 14.2386 4.41797 15.1616V18.407C4.41797 18.833 4.07266 19.1677 3.65625 19.1677Z" fill="white"></path><path d="M45.9062 43.9141H6.09375C4.32656 43.9141 2.89453 42.4841 2.89453 40.7194V22.1088C2.89453 21.693 3.23984 21.3482 3.65625 21.3482C4.07266 21.3482 4.41797 21.693 4.41797 22.1088V40.7194C4.41797 41.6423 5.16953 42.3928 6.09375 42.3928H45.9062C46.8305 42.3928 47.582 41.6423 47.582 40.7194V15.1616C47.582 14.2386 46.8305 13.4881 45.9062 13.4881H40.6961C40.2797 13.4881 39.9344 13.1433 39.9344 12.7275C39.9344 12.3117 40.2797 11.9668 40.6961 11.9668H45.9062C47.6734 11.9668 49.1055 13.3969 49.1055 15.1616V40.7194C49.1055 42.4841 47.6734 43.9141 45.9062 43.9141Z" fill="white"></path><path d="M7.13828 40.8718C6.81328 40.8718 6.51875 40.7501 6.28516 40.5169C6.06172 40.2937 5.92969 39.9895 5.92969 39.6649V16.2065C5.92969 15.5473 6.46797 15.0098 7.12812 15.0098H31.5133C31.9297 15.0098 32.275 15.3546 32.275 15.7704C32.275 16.1862 31.9297 16.5311 31.5133 16.5311H7.46328V39.3505H44.5336V16.5311H35.3828C34.9664 16.5311 34.6211 16.1862 34.6211 15.7704C34.6211 15.3546 34.9664 15.0098 35.3828 15.0098H44.8484C45.5086 15.0098 46.0469 15.5473 46.0469 16.2065V39.6649C46.0469 40.3242 45.5086 40.8617 44.8484 40.8617H7.13828C7.13828 40.8718 7.13828 40.8718 7.13828 40.8718Z" fill="white"></path><path d="M17.3789 36.0535C13.3164 36.0535 10.0156 32.7574 10.0156 28.7006C10.0156 24.6438 13.3164 21.3477 17.3789 21.3477C21.4414 21.3477 24.7422 24.6438 24.7422 28.7006C24.7422 32.7574 21.4414 36.0535 17.3789 36.0535ZM17.3789 22.869C14.1594 22.869 11.5391 25.4856 11.5391 28.7006C11.5391 31.9156 14.1594 34.5322 17.3789 34.5322C20.5984 34.5322 23.2188 31.9156 23.2188 28.7006C23.2188 25.4856 20.5984 22.869 17.3789 22.869Z" fill="white"></path><path d="M17.3789 31.0437C15.6117 31.0437 14.1797 29.6137 14.1797 27.849C14.1797 26.0843 15.6117 24.6543 17.3789 24.6543C19.1461 24.6543 20.5781 26.0843 20.5781 27.849C20.5781 29.6137 19.1359 31.0437 17.3789 31.0437ZM17.3789 26.1756C16.4547 26.1756 15.7031 26.9261 15.7031 27.849C15.7031 28.7719 16.4547 29.5225 17.3789 29.5225C18.3031 29.5225 19.0547 28.7719 19.0547 27.849C19.0547 26.9261 18.3031 26.1756 17.3789 26.1756Z" fill="white"></path><path d="M13.0526 34.28C12.9815 34.28 12.9105 34.2699 12.8394 34.2496C12.4331 34.1279 12.1995 33.7121 12.3214 33.3064C12.9714 31.0752 15.0534 29.5234 17.3792 29.5234C19.705 29.5234 21.7261 31.0143 22.4167 33.2253C22.5386 33.6309 22.3151 34.0569 21.9089 34.1786C21.5026 34.3003 21.0761 34.0772 20.9542 33.6715C20.4667 32.0995 19.0245 31.0346 17.3792 31.0346C15.7237 31.0346 14.2511 32.1401 13.7839 33.7222C13.6823 34.067 13.3776 34.28 13.0526 34.28Z" fill="white"></path><path d="M15.6389 20.0397C15.3647 20.0397 15.1007 19.8977 14.9686 19.6442C14.3796 18.559 13.7194 17.3216 13.2928 15.9525C12.9678 14.8673 12.6632 13.2344 13.0999 11.5914C13.6889 9.40076 15.5272 7.64619 17.8936 7.00725C19.9452 6.45958 22.078 6.7537 23.9569 7.00725C24.353 7.05796 25.7241 7.2608 27.1866 7.47378C28.5678 7.67662 29.9999 7.8896 30.396 7.94031C30.8124 8.00116 31.1069 8.37642 31.046 8.79224C30.985 9.20806 30.5991 9.50218 30.1928 9.44133C29.7967 9.39062 28.4257 9.18778 26.9733 8.97479C25.5921 8.77195 24.16 8.55897 23.7639 8.50826C21.946 8.25471 20.0569 8.00116 18.2999 8.46769C16.8475 8.85309 15.1108 9.97885 14.5827 11.9768C14.2374 13.2649 14.4913 14.6036 14.7655 15.4961C15.1413 16.7233 15.771 17.8795 16.3194 18.9038C16.5225 19.2689 16.3803 19.7354 16.0147 19.9383C15.8827 20.0093 15.7608 20.0397 15.6389 20.0397Z" fill="white"></path><path d="M31.8078 18.2547C31.4828 18.2547 31.1679 18.133 30.914 17.9098C30.4773 17.5244 30.3453 16.9261 30.5788 16.3885L33.6054 9.279C33.646 9.17758 33.646 9.06602 33.6054 8.9646L30.5788 1.85507C30.3554 1.31754 30.4874 0.719166 30.914 0.33377C31.3507 -0.0516254 31.9499 -0.122619 32.4578 0.161356L46.4124 7.91998C46.8492 8.16339 47.1234 8.62992 47.1234 9.12687C47.1234 9.62383 46.8492 10.0904 46.4124 10.3338L32.4578 18.0823C32.2546 18.204 32.0312 18.2547 31.8078 18.2547ZM32.1835 1.76379L35.007 8.37637C35.2101 8.85304 35.2101 9.40071 35.007 9.87738L32.1835 16.49L45.4476 9.12687L32.1835 1.76379Z" fill="white"></path><path d="M45.9875 9.88849H34.6836C34.2672 9.88849 33.9219 9.54366 33.9219 9.12784C33.9219 8.71202 34.2672 8.36719 34.6836 8.36719H45.9977C46.4141 8.36719 46.7594 8.71202 46.7594 9.12784C46.7594 9.54366 46.4141 9.88849 45.9875 9.88849Z" fill="white"></path><path d="M38.6031 25.9116H29.2797C28.6297 25.9116 28.1016 25.3842 28.1016 24.7351V22.5241C28.1016 21.875 28.6297 21.3477 29.2797 21.3477H38.6031C39.2531 21.3477 39.7812 21.875 39.7812 22.5241V24.7351C39.7812 25.3842 39.2531 25.9116 38.6031 25.9116ZM29.625 24.3903H38.2578V22.869H29.625V24.3903Z" fill="white"></path><path d="M35.0383 29.5623H28.8633C28.4469 29.5623 28.1016 29.2175 28.1016 28.8017C28.1016 28.3858 28.4469 28.041 28.8633 28.041H35.0383C35.4547 28.041 35.8 28.3858 35.8 28.8017C35.8 29.2175 35.4648 29.5623 35.0383 29.5623Z" fill="white"></path><path d="M38.7961 32.4528H28.8633C28.4469 32.4528 28.1016 32.108 28.1016 31.6921C28.1016 31.2763 28.4469 30.9315 28.8633 30.9315H38.7961C39.2125 30.9315 39.5578 31.2763 39.5578 31.6921C39.5578 32.108 39.2125 32.4528 38.7961 32.4528Z" fill="white"></path><path d="M38.7961 35.3338H28.8633C28.4469 35.3338 28.1016 34.989 28.1016 34.5731C28.1016 34.1573 28.4469 33.8125 28.8633 33.8125H38.7961C39.2125 33.8125 39.5578 34.1573 39.5578 34.5731C39.5578 34.989 39.2125 35.3338 38.7961 35.3338Z" fill="white"></path></svg>