<svg xmlns="http://www.w3.org/2000/svg" width="24" height="65" viewBox="0 0 24 65" fill="none"><path d="M22.731 16.838H1V20.957H22.731V16.838Z" stroke="#F9FBFC" stroke-opacity="0.3" stroke-width="1.3" stroke-miterlimit="10" stroke-linejoin="round"></path><path d="M3.16406 20.957V54.938C3.16406 59.762 7.07506 63.673 11.8991 63.673C16.7231 63.673 20.6341 59.762 20.6341 54.938V20.957H3.16406Z" stroke="#F9FBFC" stroke-opacity="0.3" stroke-width="1.3" stroke-miterlimit="10" stroke-linejoin="round"></path><path d="M10.9292 28.9959C10.9292 30.0719 10.0563 30.9449 8.98026 30.9449C7.90426 30.9449 7.03125 30.0729 7.03125 28.9959C7.03125 27.9199 7.90326 27.0469 8.98026 27.0469C10.0563 27.0469 10.9292 27.9199 10.9292 28.9959Z" stroke="#F9FBFC" stroke-opacity="0.3" stroke-width="1.3" stroke-miterlimit="10" stroke-linejoin="round"></path><path d="M14.3725 51.1122C15.8554 51.1122 17.0575 49.9101 17.0575 48.4272C17.0575 46.9443 15.8554 45.7422 14.3725 45.7422C12.8896 45.7422 11.6875 46.9443 11.6875 48.4272C11.6875 49.9101 12.8896 51.1122 14.3725 51.1122Z" stroke="#F9FBFC" stroke-opacity="0.3" stroke-width="1.3" stroke-miterlimit="10" stroke-linejoin="round"></path><path d="M13.8057 25.2954C13.8057 25.9984 13.2357 26.5674 12.5337 26.5674C11.8307 26.5674 11.2617 25.9974 11.2617 25.2954C11.2617 24.5924 11.8317 24.0234 12.5337 24.0234C13.2367 24.0234 13.8057 24.5934 13.8057 25.2954Z" stroke="#F9FBFC" stroke-opacity="0.3" stroke-width="1.3" stroke-miterlimit="10" stroke-linejoin="round"></path><path d="M3.16406 37.7163C3.16406 37.7163 5.40107 39.1363 10.0881 36.2963C14.7751 33.4553 18.3261 32.9583 20.6341 33.8103" stroke="#F9FBFC" stroke-opacity="0.3" stroke-width="1.3" stroke-miterlimit="10" stroke-linejoin="round"></path><path d="M9.58118 14.4244C9.58118 14.4244 8.87118 12.8624 9.58118 11.2994C10.2912 9.73738 10.4332 7.89038 9.58118 7.10938" stroke="#F9FBFC" stroke-opacity="0.3" stroke-width="1.3" stroke-miterlimit="10" stroke-linejoin="round"></path><path d="M12.0966 9.87701C12.0966 9.87701 14.0496 7.17802 12.0966 5.40302C10.1436 3.62802 10.7116 1.355 12.0966 1" stroke="#F9FBFC" stroke-opacity="0.3" stroke-width="1.3" stroke-miterlimit="10" stroke-linejoin="round"></path><path d="M14.4055 13.8734C14.4055 13.8734 14.0325 12.3825 14.8845 11.6895" stroke="#F9FBFC" stroke-opacity="0.3" stroke-width="1.3" stroke-miterlimit="10" stroke-linejoin="round"></path></svg>