<svg xmlns="http://www.w3.org/2000/svg" width="61" height="48" viewBox="0 0 61 48" fill="none"><path d="M1 32.837C1 32.837 9.10799 24.116 19.055 30.164C19.055 30.164 27.14 35.13 34.883 30.304C43.225 25.104 41.729 16.032 41.729 16.032C40.68 4.43801 52.081 1 52.081 1" stroke="#F9FBFC" stroke-opacity="0.2" stroke-width="1.3" stroke-miterlimit="10" stroke-linejoin="round"></path><path d="M9.44922 46.3976C9.44922 46.3976 20.8492 42.9596 19.8012 31.3656C19.8012 31.3656 18.9032 21.9196 26.6472 17.0936C34.9892 11.8936 42.4753 17.2336 42.4753 17.2336C52.4222 23.2816 60.5302 14.5605 60.5302 14.5605" stroke="#F9FBFC" stroke-opacity="0.2" stroke-width="1.3" stroke-miterlimit="10" stroke-linejoin="round"></path><path d="M3.38672 30.8594L12.2777 45.1254" stroke="#F9FBFC" stroke-opacity="0.2" stroke-width="1.3" stroke-miterlimit="10" stroke-linejoin="round"></path><path d="M7.21875 28.9453L15.5677 42.3413" stroke="#F9FBFC" stroke-opacity="0.2" stroke-width="1.3" stroke-miterlimit="10" stroke-linejoin="round"></path><path d="M11.8164 28.0312L18.5304 38.8022" stroke="#F9FBFC" stroke-opacity="0.2" stroke-width="1.3" stroke-miterlimit="10" stroke-linejoin="round"></path><path d="M49.4492 2.15039L58.3412 16.4154" stroke="#F9FBFC" stroke-opacity="0.2" stroke-width="1.3" stroke-miterlimit="10" stroke-linejoin="round"></path><path d="M46.0391 4.75L54.3881 18.145" stroke="#F9FBFC" stroke-opacity="0.2" stroke-width="1.3" stroke-miterlimit="10" stroke-linejoin="round"></path><path d="M43.1953 8.47656L49.9093 19.2466" stroke="#F9FBFC" stroke-opacity="0.2" stroke-width="1.3" stroke-miterlimit="10" stroke-linejoin="round"></path><path d="M20.7422 24.6191L25.5232 32.2901" stroke="#F9FBFC" stroke-opacity="0.2" stroke-width="1.3" stroke-miterlimit="10" stroke-linejoin="round"></path><path d="M22.6953 20.7949L29.9953 32.1929" stroke="#F9FBFC" stroke-opacity="0.2" stroke-width="1.3" stroke-miterlimit="10" stroke-linejoin="round"></path><path d="M35.9766 15.127L40.7575 22.798" stroke="#F9FBFC" stroke-opacity="0.2" stroke-width="1.3" stroke-miterlimit="10" stroke-linejoin="round"></path><path d="M31.6836 15.1934L38.7016 26.7664" stroke="#F9FBFC" stroke-opacity="0.2" stroke-width="1.3" stroke-miterlimit="10" stroke-linejoin="round"></path><path d="M26.6484 17.0938L34.8824 30.3047" stroke="#F9FBFC" stroke-opacity="0.2" stroke-width="1.3" stroke-miterlimit="10" stroke-linejoin="round"></path></svg>