<svg xmlns="http://www.w3.org/2000/svg" width="46" height="50" viewBox="0 0 46 50" fill="none"><path d="M37.2936 26.5977C34.0663 26.5977 31.4375 29.2264 31.4375 32.4537C31.4375 35.681 34.0663 38.3098 37.2936 38.3098C40.5208 38.3098 43.1496 35.681 43.1496 32.4537C43.1496 29.2264 40.5208 26.5977 37.2936 26.5977ZM37.2936 37.181C34.6875 37.181 32.5739 35.0598 32.5739 32.4613C32.5739 29.8628 34.6951 27.7416 37.2936 27.7416C39.892 27.7416 42.0133 29.8628 42.0133 32.4613C42.0133 35.0598 39.8996 37.181 37.2936 37.181Z" fill="white"></path><path d="M43.2722 37.9467C44.6055 36.4998 45.4237 34.5755 45.4237 32.4543C45.4237 28.1588 42.0752 24.6437 37.8631 24.3482V13.2346C37.8631 11.1891 36.1964 9.52248 34.151 9.52248H20.6737L18.5979 4.69673L21.1813 2.4543L22.3252 5.11339C21.6358 5.68157 21.3631 6.65127 21.7343 7.51491C22.0676 8.29521 22.8328 8.76491 23.6358 8.76491C23.9085 8.76491 24.1813 8.71188 24.4464 8.59824C24.954 8.37854 25.3403 7.97703 25.5449 7.46945C25.7494 6.9543 25.7419 6.3937 25.5222 5.8937C25.3025 5.38612 24.901 4.99976 24.3934 4.79521C24.06 4.66642 23.7116 4.62854 23.3707 4.674L21.9161 1.28764C21.8858 1.21945 21.8479 1.16642 21.7949 1.11339C21.7873 1.10582 21.7722 1.09824 21.7646 1.08309C21.7191 1.04521 21.6737 1.01491 21.6282 0.992181C21.6131 0.984605 21.5979 0.977029 21.5828 0.977029C21.5373 0.961878 21.4843 0.954302 21.4313 0.946726C21.4085 0.946726 21.3934 0.939151 21.3706 0.946726C21.3631 0.946726 21.3479 0.946726 21.3403 0.946726L9.82519 2.06794C9.70398 2.08309 9.59792 2.12854 9.50701 2.2043L0.764587 9.78763C0.575193 9.94673 0.514587 10.2119 0.613072 10.4391C0.703981 10.6513 0.908527 10.7801 1.1358 10.7801H1.18883L5.37065 10.371L7.49186 15.3028C7.48428 15.3331 7.47671 15.3634 7.47671 15.3937V45.3255C7.47671 47.371 9.14338 49.0376 11.1888 49.0376H37.2873C37.5979 49.0376 37.8555 48.7801 37.8555 48.4695V40.5604H37.8934L39.6131 44.8104C39.6964 45.0149 39.8858 45.1513 40.0979 45.1664H40.1358C40.3403 45.1664 40.5222 45.0604 40.6282 44.8861L41.9388 42.621L44.454 43.3407C44.6661 43.4013 44.8858 43.3331 45.0297 43.174C45.1737 43.0149 45.2191 42.7801 45.1358 42.5831L43.2722 37.9467ZM23.257 5.84824C23.3782 5.79521 23.4994 5.77248 23.6206 5.77248C23.7343 5.77248 23.8555 5.79521 23.9616 5.84067C24.1888 5.93157 24.3706 6.10582 24.4691 6.33309C24.5676 6.56036 24.5676 6.81036 24.4767 7.04521C24.3858 7.27248 24.2116 7.4543 23.9843 7.55279C23.5146 7.75733 22.9691 7.53764 22.7646 7.06794C22.5752 6.59824 22.7949 6.05279 23.257 5.84824ZM36.7267 13.2346V24.3482C35.7949 24.4164 34.901 24.6285 34.0752 24.9846V17.6588C34.0752 17.3482 33.8176 17.0907 33.507 17.0907C31.7343 17.0907 30.2873 15.6437 30.2873 13.871C30.2873 13.5604 30.0297 13.3028 29.7191 13.3028H16.81C18.1358 12.5604 19.3858 11.674 20.5297 10.6513H34.1434C35.5676 10.6588 36.7267 11.8179 36.7267 13.2346ZM2.8555 9.4846L10.1131 3.18157L19.6813 2.24976L12.4237 8.55279L2.8555 9.4846ZM12.7116 9.66642C12.8328 9.65127 12.9388 9.60582 13.0297 9.53006L17.6964 5.47703L19.6206 9.9543C16.5222 12.6816 12.5979 14.371 8.48428 14.7422L6.56004 10.2649L12.7116 9.66642ZM8.61307 45.3407V15.8558C9.50701 15.7725 10.3934 15.6361 11.2646 15.4391V40.9088C11.2646 41.227 11.5222 41.477 11.8403 41.477C13.6055 41.4846 15.0449 42.9164 15.0525 44.6892C15.0525 45.0073 15.3025 45.2649 15.6131 45.2649H32.151C32.4616 45.2649 32.7191 45.0073 32.7191 44.6967C32.7191 44.3861 32.4616 44.1285 32.151 44.1285H16.151C15.8934 42.1816 14.3479 40.6361 12.401 40.3785V15.1437C13.0979 14.9467 13.7797 14.7119 14.4464 14.4467C14.454 14.4467 14.4616 14.4543 14.4691 14.4543H29.1888C29.4464 16.4013 30.9919 17.9467 32.9388 18.2043V25.6058C30.6737 27.0528 29.1661 29.5831 29.1661 32.4619C29.1661 34.5831 29.9843 36.5073 31.3176 37.9543L29.4464 42.5831C29.3631 42.7876 29.4085 43.0149 29.5525 43.174C29.6964 43.3331 29.9237 43.4013 30.1282 43.3407L32.6434 42.621L33.954 44.8861C34.0525 45.0604 34.2419 45.1664 34.4464 45.1664H34.4843C34.704 45.1513 34.8934 45.0149 34.9691 44.8104L36.6888 40.5604H36.7267V47.9164H11.1964C9.77216 47.9164 8.61307 46.7573 8.61307 45.3407ZM32.204 38.7876C33.1585 39.5604 34.2949 40.1134 35.5373 40.3937L34.3631 43.3028L33.4161 41.6588C33.2873 41.4316 33.0222 41.3255 32.7646 41.3937L30.9388 41.9164L32.204 38.7876ZM37.2949 39.4543C33.4388 39.4543 30.3025 36.3179 30.3025 32.4619C30.3025 28.6058 33.4388 25.4695 37.2949 25.4695C41.151 25.4695 44.2873 28.6058 44.2873 32.4619C44.2873 36.3179 41.151 39.4543 37.2949 39.4543ZM41.8328 41.3937C41.5828 41.3255 41.3176 41.4316 41.1813 41.6588L40.2343 43.3028L39.06 40.3937C40.3025 40.121 41.4313 39.5604 42.3934 38.7876L43.6585 41.924L41.8328 41.3937Z" fill="white"></path><path d="M18.0838 22.0973H27.2505C27.5611 22.0973 27.8187 21.8397 27.8187 21.5291C27.8187 21.2185 27.5611 20.9609 27.2505 20.9609H18.0838C17.7732 20.9609 17.5156 21.2185 17.5156 21.5291C17.5156 21.8397 17.7732 22.0973 18.0838 22.0973Z" fill="white"></path><path d="M15.0526 26.0914H30.2798C30.5904 26.0914 30.848 25.8339 30.848 25.5233C30.848 25.2127 30.5904 24.9551 30.2798 24.9551H15.0526C14.742 24.9551 14.4844 25.2127 14.4844 25.5233C14.4844 25.8339 14.742 26.0914 15.0526 26.0914Z" fill="white"></path><path d="M27.9086 28.9551H15.0526C14.742 28.9551 14.4844 29.2127 14.4844 29.5233C14.4844 29.8339 14.742 30.0914 15.0526 30.0914H27.901C28.2116 30.0914 28.4692 29.8339 28.4692 29.5233C28.4692 29.2127 28.2192 28.9551 27.9086 28.9551Z" fill="white"></path><path d="M27.5223 32.9551H15.0526C14.742 32.9551 14.4844 33.2127 14.4844 33.5233C14.4844 33.8339 14.742 34.0914 15.0526 34.0914H27.5147C27.8253 34.0914 28.0829 33.8339 28.0829 33.5233C28.0829 33.2127 27.8329 32.9551 27.5223 32.9551Z" fill="white"></path><path d="M19.6816 36.9473H15.0604C14.7498 36.9473 14.4922 37.2048 14.4922 37.5154C14.4922 37.8261 14.7498 38.0836 15.0604 38.0836H19.6816C19.9922 38.0836 20.2498 37.8261 20.2498 37.5154C20.2498 37.2048 19.9922 36.9473 19.6816 36.9473Z" fill="white"></path><path d="M39.553 30.1355L36.1136 33.5749L35.0303 32.4915C34.8106 32.2718 34.447 32.2718 34.2273 32.4915C34.0076 32.7112 34.0076 33.0749 34.2273 33.2946L35.7121 34.7794C35.8258 34.8931 35.9697 34.9461 36.1136 34.9461C36.2576 34.9461 36.4015 34.8931 36.5152 34.7794L40.3561 30.9385C40.5758 30.7188 40.5758 30.3552 40.3561 30.1355C40.1364 29.9158 39.7727 29.9158 39.553 30.1355Z" fill="white"></path></svg>