<svg xmlns="http://www.w3.org/2000/svg" width="50" height="50" viewBox="0 0 50 50" fill="none"><path d="M46.7271 39.2579C46.4537 38.1329 45.399 37.3986 44.2818 37.4767L42.1334 31.7579C42.0552 31.5548 41.899 31.3908 41.7037 31.3126C41.5084 31.2267 41.2818 31.2345 41.0865 31.3204L25.5162 38.3283C25.3443 38.3048 25.1724 38.2814 25.0005 38.2814C24.8287 38.2814 24.6568 38.3048 24.4849 38.3283L8.9146 31.3204C8.71929 31.2345 8.49272 31.2267 8.29741 31.3126C8.09429 31.3986 7.93804 31.5548 7.86772 31.7579L5.7271 37.4689C5.26616 37.4454 4.81304 37.5548 4.40679 37.8048C3.86772 38.1329 3.49272 38.6486 3.34429 39.2579C3.19585 39.8673 3.29741 40.4923 3.61772 41.0314C3.94585 41.5626 4.46147 41.9454 5.06304 42.0861L24.4459 46.7892C24.6255 46.8361 24.813 46.8517 25.0005 46.8517C25.188 46.8517 25.3677 46.8283 25.5552 46.7892L45.0084 42.0861C45.6177 41.9376 46.1334 41.5626 46.4537 41.0314C46.7818 40.4923 46.8755 39.8673 46.7271 39.2579ZM40.9693 33.0861L41.524 34.5704L35.6646 36.7658C35.2584 36.9142 35.0552 37.3673 35.2037 37.7736C35.3209 38.0861 35.6255 38.2814 35.938 38.2814C36.0318 38.2814 36.1255 38.2658 36.2115 38.2345L42.0708 36.0392L42.7349 37.8204L29.2818 41.0704C28.9224 40.2579 28.3365 39.5861 27.6099 39.1017L40.9693 33.0861ZM25.0005 42.1017L22.2818 41.4454C22.8209 40.4767 23.8443 39.8517 25.0005 39.8517C26.1568 39.8517 27.1802 40.4845 27.7193 41.4533L25.0005 42.1017ZM9.03179 33.0861L22.3833 39.0939C21.6646 39.5783 21.0787 40.2501 20.7193 41.0626L7.26616 37.797L7.93022 36.0314L13.7896 38.2267C13.8755 38.2658 13.9693 38.2814 14.063 38.2814C14.3755 38.2814 14.6802 38.0861 14.7974 37.7736C14.9458 37.3673 14.7427 36.922 14.3365 36.7658L8.4771 34.5704L9.03179 33.0861ZM4.94585 40.2189C4.83647 40.0392 4.80522 39.8283 4.8521 39.6251C4.89897 39.422 5.03179 39.2423 5.21147 39.1408C5.32866 39.0626 5.46929 39.0236 5.6021 39.0236C5.6646 39.0236 5.7271 39.0314 5.79741 39.047L21.0005 42.7345C21.0083 42.7345 21.0162 42.7423 21.024 42.7423H21.0552L21.3599 42.8126L21.5162 44.4611L5.43022 40.5704C5.2271 40.5158 5.05522 40.3908 4.94585 40.2189ZM25.188 45.2736C25.063 45.3048 24.938 45.3048 24.8209 45.2736L23.1255 44.8595L22.9693 43.2111L24.8209 43.6642C24.9459 43.6954 25.0709 43.6954 25.188 43.6642L27.0396 43.2189L26.8833 44.8673L25.188 45.2736ZM45.1177 40.2189C45.0084 40.3986 44.8365 40.5236 44.6334 40.5704L28.4849 44.4767L28.6412 42.8283L28.9537 42.7501H28.9693C28.9693 42.7501 28.9771 42.7501 28.9771 42.7423L44.2584 39.047C44.6802 38.9454 45.1021 39.2033 45.2037 39.6251C45.2584 39.8283 45.2271 40.0392 45.1177 40.2189Z" fill="white"></path><path d="M18.75 23.0227V24.218V28.9055C18.75 29.9446 19.4297 30.8118 20.3672 31.1243C20.6797 33.3977 22.6406 35.1555 25 35.1555C27.3594 35.1555 29.3203 33.3977 29.6328 31.1243C30.5703 30.8118 31.25 29.9446 31.25 28.9055V24.218V23.0227C34.6328 20.6633 36.3906 16.6946 35.8359 12.5696C35.1875 7.68678 31.1562 3.74147 26.2578 3.19459C23.1484 2.84303 20.0312 3.83522 17.7109 5.90553C15.3906 7.98365 14.0625 10.9524 14.0625 14.0618C14.0625 17.6555 15.8047 20.9758 18.75 23.0227ZM29.6875 24.9993V26.5618H20.3125V24.9993H29.6875ZM25 33.593C23.5469 33.593 22.3359 32.593 21.9844 31.2493H28.0156C27.6641 32.593 26.4531 33.593 25 33.593ZM28.9062 29.6868H21.0938C20.6641 29.6868 20.3125 29.3352 20.3125 28.9055V28.1243H29.6875V28.9055C29.6875 29.3352 29.3359 29.6868 28.9062 29.6868ZM18.75 7.06959C20.4922 5.5149 22.6719 4.68678 24.9844 4.68678C25.3438 4.68678 25.7109 4.71022 26.0781 4.74928C30.2734 5.21803 33.7266 8.59303 34.2812 12.7805C34.7734 16.4446 33.1406 19.9602 30.0391 21.9524C29.8203 22.093 29.6875 22.343 29.6875 22.6087V23.4368H25.7812V14.843H28.125C28.5547 14.843 28.9062 14.4915 28.9062 14.0618C28.9062 13.6321 28.5547 13.2805 28.125 13.2805H21.875C21.4453 13.2805 21.0938 13.6321 21.0938 14.0618C21.0938 14.4915 21.4453 14.843 21.875 14.843H24.2188V23.4368H20.3125V22.6087C20.3125 22.343 20.1797 22.093 19.9531 21.9524C17.2422 20.2102 15.625 17.2649 15.625 14.0618C15.625 11.3977 16.7656 8.85084 18.75 7.06959Z" fill="white"></path><path d="M39.8438 14.8438H42.9688C43.3984 14.8438 43.75 14.4922 43.75 14.0625C43.75 13.6328 43.3984 13.2812 42.9688 13.2812H39.8438C39.4141 13.2812 39.0625 13.6328 39.0625 14.0625C39.0625 14.4922 39.4141 14.8438 39.8438 14.8438Z" fill="white"></path><path d="M39.8449 10.1554C39.9621 10.1554 40.0793 10.132 40.1965 10.0695L43.3215 8.507C43.7043 8.31169 43.8605 7.84294 43.673 7.46012C43.4777 7.07731 43.009 6.92106 42.6261 7.10856L39.5011 8.67106C39.1183 8.86637 38.9621 9.33512 39.1496 9.71794C39.2824 9.99919 39.5558 10.1554 39.8449 10.1554Z" fill="white"></path><path d="M40.1974 18.0548C39.8067 17.8595 39.338 18.0157 39.1505 18.4063C38.9552 18.7892 39.1114 19.2579 39.5021 19.4532L42.6271 21.0157C42.7364 21.0704 42.8536 21.0938 42.9708 21.0938C43.2599 21.0938 43.5333 20.9376 43.6739 20.6642C43.8692 20.2814 43.713 19.8126 43.3224 19.6173L40.1974 18.0548Z" fill="white"></path><path d="M7.03125 14.8438H10.1562C10.5859 14.8438 10.9375 14.4922 10.9375 14.0625C10.9375 13.6328 10.5859 13.2812 10.1562 13.2812H7.03125C6.60156 13.2812 6.25 13.6328 6.25 14.0625C6.25 14.4922 6.60156 14.8438 7.03125 14.8438Z" fill="white"></path><path d="M6.68194 8.50616L9.80694 10.0687C9.92412 10.1312 10.0413 10.1546 10.1585 10.1546C10.4476 10.1546 10.721 9.99834 10.8616 9.72491C11.0569 9.34209 10.9007 8.87334 10.5101 8.67803L7.38506 7.11553C6.99444 6.92022 6.52569 7.07647 6.33819 7.45928C6.14287 7.84991 6.29912 8.31866 6.68194 8.50616Z" fill="white"></path><path d="M9.80583 18.053L6.68083 19.6155C6.29801 19.8108 6.14176 20.2796 6.32926 20.6624C6.46989 20.9358 6.74333 21.0921 7.03239 21.0921C7.14958 21.0921 7.26676 21.0687 7.38395 21.0062L10.509 19.4437C10.8918 19.2483 11.048 18.7796 10.8605 18.3968C10.6652 18.014 10.1965 17.8577 9.80583 18.053Z" fill="white"></path></svg>