<svg xmlns="http://www.w3.org/2000/svg" width="60" height="60" viewBox="0 0 60 60" fill="none"><path d="M46.5339 24.7548C46.5237 24.7548 46.5136 24.7548 46.5029 24.7543C45.2603 24.7146 43.9766 24.314 42.6179 23.8896C40.1115 23.1067 37.2707 22.2193 34.0641 23.5127C33.4408 23.7628 32.7344 23.2877 32.7344 22.6151V13.5595C32.7344 13.303 32.836 13.0572 33.017 12.8757C37.9674 7.91752 42.4418 10.7675 46.7686 13.5232C49.9341 15.5395 53.2074 17.6254 56.9608 17.0762C57.7171 16.9669 58.3128 17.7817 57.9644 18.4707C57.1878 20.0051 56.0516 21.3459 53.3555 21.3072C53.8355 21.9014 54.4336 22.9587 53.3057 23.3303C51.6034 23.8906 50.0328 23.4009 48.5245 22.664C48.6712 22.9707 48.795 23.3075 48.795 23.6806C48.7955 24.7983 47.3105 24.7548 46.5339 24.7548ZM37.4468 20.9177C39.5961 20.9177 41.5229 21.5196 43.1947 22.0417C44.37 22.409 45.4829 22.7564 46.4342 22.8135C46.1463 22.184 45.9039 21.3251 46.4613 20.4077C46.8087 19.8362 47.4658 19.8754 47.9705 20.1807C49.082 20.7924 50.0971 21.3503 51.0663 21.553L50.31 20.6172C49.742 19.9141 50.4141 18.8559 51.2894 19.0678C53.1881 19.5256 54.2889 19.4274 54.9861 19.0737C51.4926 18.8264 48.4602 16.8948 45.7292 15.1548C41.205 12.2733 38.2099 10.6553 34.6699 13.9683V21.2738C35.6318 21.0207 36.5584 20.9177 37.4468 20.9177Z" fill="white"></path><path d="M13.4386 24.7347C12.8555 24.7347 11.9797 24.7051 11.5244 24.2905C11.0458 23.855 11.2031 23.165 11.4382 22.6463C9.96049 23.3929 8.35985 23.8651 6.65324 23.209C5.58049 22.7968 6.17324 21.7888 6.64791 21.2019C3.9513 21.2397 2.81566 19.9003 2.03904 18.3655C1.69211 17.6798 2.28533 16.8568 3.04404 16.9714C6.73646 17.5163 9.97888 15.4453 13.1168 13.443C17.4624 10.6695 21.9566 7.8011 26.9821 12.7661C27.166 12.948 27.2695 13.1958 27.2695 13.4547V22.5103C27.2695 23.1853 26.5563 23.6624 25.9321 23.405C22.8315 22.1232 20.1547 22.9893 17.5669 23.8279C16.1371 24.29 14.7629 24.7347 13.4386 24.7347ZM13.5421 20.3029C14.1963 21.2179 13.8319 22.1614 13.5276 22.7977C14.5258 22.7774 15.6847 22.4024 16.9708 21.9858C19.2992 21.2319 22.1279 20.3159 25.334 21.1632V13.8674C21.7268 10.5364 18.7108 12.169 14.1576 15.0742C11.4547 16.7992 8.45372 18.7138 5.01437 18.9669C5.71114 19.3216 6.81195 19.4213 8.71404 18.9626C9.58743 18.7511 10.2639 19.8059 9.6934 20.5119L8.86695 21.5338C9.84146 21.364 10.9036 20.7674 12.2144 19.9763C12.3711 19.8819 13.1245 19.7184 13.5421 20.3029Z" fill="white"></path><path d="M40.4497 39.3048C39.554 36.2173 35.9115 35.0806 33.735 34.4013L33.3208 34.2711C32.5079 34.0118 31.739 33.855 31.0016 33.7553V11.2365C33.6948 10.7792 35.7527 8.45661 35.7527 5.66177C35.7527 2.53984 33.1873 0 30.0339 0C26.8805 0 24.3145 2.53984 24.3145 5.66177C24.3145 8.45661 26.3724 10.7792 29.0657 11.2365V33.615C28.2116 33.6053 27.405 33.6518 26.6415 33.6982C24.5274 33.8274 22.8581 33.9295 21.2628 32.7044C20.5011 32.1198 19.2189 30.8797 19.186 29.1431C19.1487 27.1471 20.8379 25.7279 21.1766 25.4637C21.5981 25.1352 21.6731 24.5269 21.3445 24.1055C21.016 23.684 20.4078 23.609 19.9863 23.9376C19.3311 24.4485 17.1978 26.3366 17.251 29.1794C17.2989 31.7269 19.0461 33.4432 20.0836 34.2397C22.2532 35.9056 24.4423 35.7726 26.759 35.6303C27.5105 35.5844 28.274 35.5413 29.0657 35.551V43.5087C28.4434 43.5005 27.8569 43.5339 27.3024 43.5677C25.815 43.6587 24.7398 43.7245 23.6981 42.9247C23.2016 42.5429 22.365 41.7377 22.3442 40.6326C22.3205 39.3595 23.4189 38.4377 23.639 38.266C24.0605 37.9374 24.136 37.3292 23.8074 36.9077C23.4794 36.4863 22.8707 36.4103 22.4492 36.7394C21.9605 37.1202 20.3695 38.5292 20.4092 40.6679C20.445 42.5835 21.7461 43.8653 22.5194 44.459C24.135 45.6992 25.8048 45.5976 27.4205 45.4989C27.9566 45.466 28.5015 45.4355 29.0657 45.4447V52.2416C28.6195 52.2334 28.2063 52.2566 27.8328 52.2794C26.7919 52.3418 26.2219 52.3553 25.6515 51.9174C25.4226 51.7423 24.8894 51.2671 24.8778 50.6434C24.8647 49.9355 25.5373 49.3911 25.6137 49.3311C26.0357 49.0026 26.1111 48.3944 25.7831 47.9729C25.4545 47.5505 24.8468 47.4755 24.4248 47.8035C24.0697 48.0803 22.9128 49.1047 22.9428 50.6792C22.9689 52.0911 23.9134 53.0231 24.4732 53.4527C25.6442 54.3518 26.8171 54.2802 27.9513 54.211C28.3147 54.1887 28.6839 54.1679 29.0661 54.1766V59.0323C29.0661 59.5664 29.4997 60 30.0339 60C30.5681 60 31.0016 59.5664 31.0016 59.0323V54.5526C31.7536 54.7926 32.7934 55.1729 32.9811 55.8208C33.1224 56.309 32.7939 56.9052 32.5858 57.2173C31.8982 58.246 33.5003 59.3332 34.1947 58.2929C34.8876 57.256 35.1107 56.2152 34.8402 55.2818C34.3428 53.5669 32.3942 52.9592 31.3471 52.6321L31.156 52.5721C31.1032 52.5552 31.0529 52.544 31.0011 52.529V45.6808C31.1753 45.7234 31.3515 45.7713 31.5315 45.8289L31.8334 45.9237C33.0527 46.304 35.0927 46.9408 35.4774 48.2676C35.7319 49.1444 35.2602 50.1135 34.8198 50.7726C34.1328 51.8018 35.7339 52.8881 36.4292 51.8482C37.3882 50.4131 37.7018 48.9885 37.3365 47.7285C36.6619 45.4031 34.0002 44.5723 32.4097 44.0763L32.1189 43.9853C31.7323 43.8619 31.3621 43.7744 31.0007 43.7037V35.7077C31.5576 35.7958 32.1319 35.924 32.7324 36.1152L33.1582 36.2492C34.9631 36.8124 37.9848 37.755 38.5907 39.8444C38.9942 41.2355 38.2781 42.7263 37.6065 43.7318C36.9189 44.7605 38.521 45.8468 39.2158 44.8069C40.5068 42.8744 40.9331 40.9723 40.4497 39.3048C40.9331 40.9723 39.5545 36.2173 40.4497 39.3048ZM26.25 5.66177C26.25 3.60726 27.9474 1.93548 30.0339 1.93548C32.1203 1.93548 33.8173 3.60726 33.8173 5.66177C33.8173 7.71629 32.1198 9.38855 30.0339 9.38855C27.9479 9.38855 26.25 7.71677 26.25 5.66177Z" fill="white"></path><path d="M38.9247 34.1269C37.8698 34.1269 37.6037 32.6076 38.5956 32.249C40.0821 31.7119 41.0581 30.4655 41.0822 29.0739C41.105 27.7544 40.2403 26.5113 38.8792 25.9069C38.3905 25.6902 38.1703 25.1182 38.3871 24.6295C38.6043 24.1413 39.1768 23.9221 39.6645 24.1374C41.7374 25.0578 43.0531 27.0082 43.0172 29.1073C42.979 31.3089 41.5018 33.2565 39.2537 34.0689C39.1453 34.1081 39.034 34.1269 38.9247 34.1269Z" fill="white"></path><path d="M26.9319 59.2599C26.3759 59.2599 25.8306 59.0659 25.3985 58.7074C24.9035 58.2961 24.6001 57.7033 24.5658 57.0811C24.499 55.8651 25.4595 54.7774 26.7059 54.6569C27.2358 54.6056 27.7109 54.9951 27.7622 55.5269C27.8135 56.0587 27.424 56.5319 26.8922 56.5832C26.4926 56.6219 26.3784 57.0641 26.7142 57.2708C27.0737 57.4924 27.4748 57.2466 27.8247 57.6259C28.5161 58.3759 27.7767 59.2599 26.9319 59.2599Z" fill="white"></path></svg>