<svg xmlns="http://www.w3.org/2000/svg" width="40" height="40" viewBox="0 0 40 40" fill="none"><path d="M39.3103 18.7172H30.4897V17.0138C30.4892 16.765 30.3548 16.5357 30.1379 16.4138L20.6897 11.1034V8.39999H22.5586V9.42758C22.5586 9.80844 22.8674 10.1172 23.2483 10.1172H28.8828C29.2636 10.1171 29.5722 9.80818 29.5722 9.42732C29.5722 9.34749 29.5582 9.26827 29.531 9.1931L28.9655 7.5862L29.5379 6.01379C29.6674 5.6556 29.4821 5.26025 29.1239 5.13077C29.0488 5.10361 28.9696 5.08973 28.8897 5.08965H26.3241V4.08965C26.3241 3.70878 26.0153 3.39999 25.6345 3.39999H20.6897V2.55861C20.6897 2.17775 20.3809 1.86896 20 1.86896C19.6191 1.86896 19.3103 2.17775 19.3103 2.55861V11.1034L9.86207 16.4069C9.64517 16.5288 9.51078 16.7581 9.51034 17.0069V18.7103H0.689655C0.308793 18.7103 0 19.0191 0 19.4V37.4414C0 37.8222 0.308793 38.131 0.689655 38.131H39.3103C39.6912 38.131 40 37.8222 40 37.4414V19.4069C40 19.026 39.6912 18.7172 39.3103 18.7172ZM26.3241 7.71034L26.2966 7.68275V6.49654H27.869L27.5862 7.3793C27.5297 7.53292 27.5297 7.70154 27.5862 7.85516L27.9103 8.73792H23.9379V8.39999H25.6345C26.0153 8.39999 26.3241 8.0912 26.3241 7.71034ZM20.6897 4.7793H24.9448V5.80689V7.02068H20.6897V4.7793ZM9.51034 36.7517H1.37931V20.0965H9.51034V36.7517ZM19.3103 36.7517H15.6897V28.8759H19.3103V36.7517ZM24.3103 36.7517H20.6897V28.8759H24.3103V36.7517ZM29.1379 36.7517H25.6897V28.1862C25.6897 27.8053 25.3809 27.4965 25 27.4965H15C14.6191 27.4965 14.3103 27.8053 14.3103 28.1862V36.7517H10.8621V17.4414L20 12.2965L29.1103 17.4138L29.1379 19.4V36.7517ZM38.6207 36.7517H30.4897V20.0965H38.6207V36.7517Z" fill="#262626"></path><path d="M19.999 14.4062C18.402 14.41 17.1094 15.7057 17.1094 17.3028C17.1132 18.8988 18.41 20.1894 20.0059 20.1856C21.6019 20.1818 22.8925 18.885 22.8887 17.289C22.8849 15.6958 21.5922 14.4062 19.999 14.4062ZM19.999 18.8063C19.1649 18.8025 18.4918 18.1231 18.4956 17.289C18.4994 16.4603 19.1702 15.7894 19.999 15.7856C20.8343 15.7894 21.5094 16.4675 21.5094 17.3028H21.5163C21.5125 18.1369 20.8332 18.81 19.999 18.8063Z" fill="#262626"></path><path d="M4.42228 21.6133H3.04297V24.3719H4.42228V21.6133Z" fill="#262626"></path><path d="M7.82072 21.6133H6.44141V24.3719H7.82072V21.6133Z" fill="#262626"></path><path d="M15.7157 21.6133H12.957V22.9926H15.7157V21.6133Z" fill="#262626"></path><path d="M21.3797 21.6133H18.6211V22.9926H21.3797V21.6133Z" fill="#262626"></path><path d="M27.0399 21.6133H24.2812V22.9926H27.0399V21.6133Z" fill="#262626"></path><path d="M15.7157 24.8281H12.957V26.2074H15.7157V24.8281Z" fill="#262626"></path><path d="M21.3797 24.8281H18.6211V26.2074H21.3797V24.8281Z" fill="#262626"></path><path d="M27.0399 24.8281H24.2812V26.2074H27.0399V24.8281Z" fill="#262626"></path><path d="M4.42228 27.041H3.04297V29.7996H4.42228V27.041Z" fill="#262626"></path><path d="M7.82072 27.041H6.44141V29.7996H7.82072V27.041Z" fill="#262626"></path><path d="M4.42228 32.4766H3.04297V35.2352H4.42228V32.4766Z" fill="#262626"></path><path d="M7.82072 32.4766H6.44141V35.2352H7.82072V32.4766Z" fill="#262626"></path><path d="M33.559 21.6133H32.1797V24.3719H33.559V21.6133Z" fill="#262626"></path><path d="M36.9574 21.6133H35.5781V24.3719H36.9574V21.6133Z" fill="#262626"></path><path d="M33.559 27.041H32.1797V29.7996H33.559V27.041Z" fill="#262626"></path><path d="M36.9574 27.041H35.5781V29.7996H36.9574V27.041Z" fill="#262626"></path><path d="M33.559 32.4766H32.1797V35.2352H33.559V32.4766Z" fill="#262626"></path><path d="M36.9574 32.4766H35.5781V35.2352H36.9574V32.4766Z" fill="#262626"></path></svg>