<svg xmlns="http://www.w3.org/2000/svg" width="50" height="38" viewBox="0 0 50 38" fill="none"><path d="M48.7244 32.9044L29.1639 35.5418V35.685C29.1639 36.9614 27.9772 38 26.5185 38H22.9209C21.4622 38 20.2754 36.9615 20.2754 35.685V35.542L0.675756 32.9045C0.240819 32.8459 -0.0574721 32.49 0.00935707 32.1094C0.0762858 31.7287 0.48244 31.4678 0.917974 31.5262L21.1933 34.2547C21.582 34.3071 21.869 34.5997 21.869 34.9439V35.685C21.869 36.1925 22.3408 36.6055 22.9209 36.6055H26.5185C27.0985 36.6055 27.5704 36.1926 27.5704 35.685V34.9439C27.5704 34.5998 27.8572 34.3071 28.2458 34.2548L48.4819 31.5263C48.9155 31.4666 49.3235 31.7285 49.3906 32.1092C49.4575 32.4897 49.1594 32.8457 48.7244 32.9044ZM0.572674 22.4976C0.489312 22.2847 0.528652 22.0495 0.678246 21.8664C0.82784 21.6833 1.06926 21.5745 1.32652 21.5745C5.79013 21.5745 10.3675 22.4508 14.2155 24.0418C18.7542 25.9185 22.2751 28.7101 24.7001 32.3502C27.1251 28.71 30.6459 25.9185 35.1847 24.0418C39.0327 22.4508 43.61 21.5745 48.0737 21.5745C48.3309 21.5745 48.5723 21.6832 48.7219 21.8664C48.8715 22.0496 48.9108 22.2847 48.8275 22.4976L45.7095 30.4682C45.5993 30.7502 45.2964 30.9396 44.9558 30.9396C36.7834 30.9396 29.7518 32.4854 25.1561 35.2921C25.1538 35.2935 25.1514 35.2944 25.1491 35.2958C25.1185 35.3141 25.0869 35.3304 25.0544 35.3445C25.0495 35.3467 25.0443 35.3485 25.0393 35.3506C25.0087 35.3633 24.9775 35.3742 24.9457 35.3831C24.9413 35.3843 24.937 35.3859 24.9326 35.3871C24.8987 35.3961 24.8642 35.4028 24.8294 35.4078C24.8218 35.4088 24.8143 35.4097 24.8067 35.4106C24.7713 35.4148 24.7357 35.4176 24.7001 35.4176C24.6644 35.4176 24.6289 35.4148 24.5935 35.4106C24.5859 35.4097 24.5784 35.4088 24.5708 35.4078C24.536 35.4028 24.5015 35.3961 24.4675 35.3871C24.4631 35.3859 24.4589 35.3843 24.4545 35.3831C24.4227 35.3742 24.3914 35.3633 24.3609 35.3506C24.3559 35.3485 24.3507 35.3467 24.3457 35.3445C24.3132 35.3304 24.2817 35.3141 24.2511 35.2958C24.2488 35.2944 24.2462 35.2935 24.2439 35.2921C19.6483 32.4854 12.6167 30.9396 4.44428 30.9396C4.10366 30.9396 3.80079 30.7502 3.69054 30.4682L0.572674 22.4976ZM5.01477 29.5477C10.0954 29.5918 14.7515 30.2259 18.6894 31.3833C14.2206 28.7733 8.78121 26.6898 3.84999 26.57L5.01477 29.5477ZM45.5501 26.57C40.6189 26.6897 35.1795 28.7732 30.7106 31.3833C34.6486 30.2258 39.3047 29.5918 44.3853 29.5476L45.5501 26.57ZM26.6117 32.2905C31.8977 28.5032 39.3052 25.1694 45.9949 25.1694C46.029 25.1694 46.0624 25.1719 46.0955 25.1755L46.9502 22.9905C42.5058 23.1556 32.4001 24.4385 26.6117 32.2905ZM2.44977 22.9905L3.3045 25.1755C3.33757 25.1719 3.37093 25.1694 3.40509 25.1694C10.0948 25.1694 17.5023 28.5032 22.7882 32.2905C16.9999 24.4385 6.89415 23.1556 2.44977 22.9905ZM4.33931 5.12434C4.33931 4.80822 4.58232 4.53159 4.93151 4.45053L23.9769 0.0233361C24.111 -0.00777871 24.252 -0.00777871 24.386 0.0233361L43.4313 4.45053C43.7805 4.53168 44.0235 4.80822 44.0235 5.12434C44.0235 5.44046 43.7805 5.71709 43.4313 5.79815L42.8712 5.92836V13.3258L44.6621 14.2307C44.9087 14.3553 45.0605 14.5853 45.0605 14.8345V20.6778C45.0605 20.942 44.8898 21.1836 44.6196 21.3015C44.3494 21.4198 44.0262 21.3939 43.7847 21.2349L42.0745 20.1095L40.364 21.2349C40.2234 21.3275 40.0548 21.3749 39.885 21.3749C39.7637 21.3749 39.6419 21.3508 39.5293 21.3014C39.2591 21.1834 39.0884 20.9419 39.0884 20.6777V14.8344C39.0884 14.5853 39.2402 14.3552 39.4868 14.2306L41.2775 13.3258V6.29869L38.001 7.06035V15.6284C38.001 15.9651 37.726 16.2538 37.3475 16.3143C35.1299 16.6691 33.3014 16.9785 31.8322 17.2271C28.0424 17.8681 26.1118 18.1887 24.1813 18.1887C22.2506 18.1887 20.3199 17.8681 16.5303 17.2271C15.0611 16.9785 13.2326 16.6692 11.015 16.3143C10.6365 16.2538 10.3615 15.9651 10.3615 15.6284V7.06035L4.93141 5.79815C4.58242 5.71709 4.33931 5.44046 4.33931 5.12434ZM43.467 15.237L42.0747 14.5335L40.6822 15.2371V19.281L41.5959 18.6799C41.8794 18.4931 42.2699 18.4931 42.5536 18.6799L43.4671 19.281V15.237H43.467ZM36.4076 7.43085L24.3861 10.2253C24.319 10.2409 24.2503 10.2487 24.1815 10.2487C24.1127 10.2487 24.0439 10.2409 23.9769 10.2253L11.9552 7.43085V15.0477C13.8889 15.3599 15.5068 15.6337 16.8329 15.858C24.1816 17.1013 24.1817 17.1011 31.53 15.858C32.8559 15.6337 34.474 15.3599 36.4076 15.0477V7.43085ZM8.2396 5.12434L24.1814 8.83006L40.1231 5.12434L24.1815 1.41854L8.2396 5.12434Z" fill="#262626"></path></svg>