<svg xmlns="http://www.w3.org/2000/svg" width="77" height="64" viewBox="0 0 77 64" fill="none"><path d="M54.2559 41.019C53.9572 41.0204 53.6677 40.9157 53.439 40.7235L43.9311 33.0233C43.7816 32.8994 43.6612 32.744 43.5786 32.5683C43.496 32.3925 43.4532 32.2007 43.4531 32.0065V10.7138C43.4531 10.368 43.5905 10.0365 43.8349 9.79198C44.0794 9.5475 44.411 9.41016 44.7568 9.41016C45.1025 9.41016 45.4341 9.5475 45.6786 9.79198C45.923 10.0365 46.0604 10.368 46.0604 10.7138V31.3894L55.0815 38.6985C55.2961 38.8702 55.451 39.1053 55.524 39.3702C55.597 39.6351 55.5844 39.9164 55.488 40.1737C55.3916 40.4311 55.2164 40.6514 54.9873 40.8032C54.7582 40.955 54.487 41.0305 54.2125 41.019H54.2559Z" fill="#890C25"></path><path d="M31.6638 46.2459H17.1239C16.7782 46.2459 16.4466 46.1086 16.2021 45.8641C15.9577 45.6196 15.8203 45.2881 15.8203 44.9423C15.8203 44.5966 15.9577 44.265 16.2021 44.0205C16.4466 43.776 16.7782 43.6387 17.1239 43.6387H31.6638C32.0096 43.6387 32.3412 43.776 32.5856 44.0205C32.8301 44.265 32.9675 44.5966 32.9675 44.9423C32.9675 45.2881 32.8301 45.6196 32.5856 45.8641C32.3412 46.1086 32.0096 46.2459 31.6638 46.2459Z" fill="#890C25"></path><path d="M25.7685 32.2538H1.30364C0.95789 32.2538 0.626305 32.1164 0.381826 31.8719C0.137347 31.6275 0 31.2959 0 30.9501C0 30.6044 0.137347 30.2728 0.381826 30.0283C0.626305 29.7838 0.95789 29.6465 1.30364 29.6465H25.7685C26.1143 29.6465 26.4459 29.7838 26.6903 30.0283C26.9348 30.2728 27.0722 30.6044 27.0722 30.9501C27.0722 31.2959 26.9348 31.6275 26.6903 31.8719C26.4459 32.1164 26.1143 32.2538 25.7685 32.2538Z" fill="#890C25"></path><path d="M16.4633 18.1034H7.77239C7.42664 18.1034 7.09506 17.966 6.85058 17.7215C6.6061 17.4771 6.46875 17.1455 6.46875 16.7997C6.46875 16.454 6.6061 16.1224 6.85058 15.8779C7.09506 15.6334 7.42664 15.4961 7.77239 15.4961H16.4633C16.809 15.4961 17.1406 15.6334 17.3851 15.8779C17.6296 16.1224 17.7669 16.454 17.7669 16.7997C17.7669 17.1455 17.6296 17.4771 17.3851 17.7215C17.1406 17.966 16.809 18.1034 16.4633 18.1034Z" fill="#890C25"></path><path d="M44.7568 56.7782C44.411 56.7782 44.0794 56.6408 43.8349 56.3963C43.5905 56.1519 43.4531 55.8203 43.4531 55.4745V55.2138C43.4531 54.868 43.5905 54.5365 43.8349 54.292C44.0794 54.0475 44.411 53.9102 44.7568 53.9102C45.1025 53.9102 45.4341 54.0475 45.6786 54.292C45.923 54.5365 46.0604 54.868 46.0604 55.2138V55.4745C46.0604 55.8203 45.923 56.1519 45.6786 56.3963C45.4341 56.6408 45.1025 56.7782 44.7568 56.7782Z" fill="#890C25"></path><path d="M69.0409 33.3143H68.7802C68.4345 33.3143 68.1029 33.177 67.8584 32.9325C67.6139 32.688 67.4766 32.3564 67.4766 32.0107C67.4766 31.6649 67.6139 31.3333 67.8584 31.0889C68.1029 30.8444 68.4345 30.707 68.7802 30.707H69.0409C69.3867 30.707 69.7183 30.8444 69.9627 31.0889C70.2072 31.3333 70.3446 31.6649 70.3446 32.0107C70.3446 32.3564 70.2072 32.688 69.9627 32.9325C69.7183 33.177 69.3867 33.3143 69.0409 33.3143Z" fill="#890C25"></path><path d="M14.3549 37.5381C14.0411 37.5388 13.7377 37.4255 13.5011 37.2193C13.2645 37.0131 13.1108 36.728 13.0687 36.417C12.8682 34.9569 12.7724 33.4844 12.7819 32.0107C12.7819 31.6649 12.9192 31.3333 13.1637 31.0889C13.4082 30.8444 13.7398 30.707 14.0855 30.707C14.4313 30.707 14.7629 30.8444 15.0073 31.0889C15.2518 31.3333 15.3892 31.6649 15.3892 32.0107C15.3893 33.3625 15.4822 34.7128 15.6673 36.0519C15.6903 36.224 15.6788 36.3989 15.6334 36.5665C15.5879 36.734 15.5094 36.8908 15.4026 37.0276C15.2957 37.1644 15.1626 37.2785 15.0111 37.3632C14.8595 37.4478 14.6926 37.5014 14.5201 37.5207L14.3549 37.5381Z" fill="#890C25"></path><path d="M44.7545 63.9998C40.4548 64.015 36.1969 63.1561 32.2393 61.4753C28.2818 59.7946 24.7071 57.3271 21.7323 54.2225C21.5339 53.9675 21.4373 53.6479 21.4612 53.3258C21.4851 53.0036 21.6278 52.7017 21.8616 52.4788C22.0954 52.2558 22.4036 52.1276 22.7266 52.119C23.0495 52.1104 23.3642 52.222 23.6095 52.4322C26.3421 55.2818 29.6258 57.5456 33.2609 59.086C36.896 60.6264 40.8065 61.4112 44.7545 61.3925C49.9917 61.3911 55.1334 59.9898 59.6473 57.3339C64.1611 54.678 67.8831 50.864 70.428 46.2866C72.9728 41.7092 74.248 36.5348 74.1215 31.2991C73.9951 26.0634 72.4716 20.9566 69.7087 16.5074C66.9458 12.0582 63.044 8.42826 58.4072 5.99338C53.7704 3.55851 48.5671 2.40716 43.3358 2.65852C38.1046 2.90989 33.0357 4.55484 28.6537 7.42308C24.2717 10.2913 20.7359 14.2786 18.4124 18.9722C18.2579 19.2823 17.9867 19.5182 17.6582 19.6283C17.3298 19.7383 16.9712 19.7133 16.6611 19.5589C16.3511 19.4044 16.1151 19.1332 16.0051 18.8048C15.8951 18.4764 15.9201 18.1177 16.0745 17.8077C18.6043 12.6952 22.4547 8.35192 27.2271 5.22747C31.9994 2.10303 37.5201 0.311006 43.2177 0.0369586C48.9152 -0.237089 54.5825 1.0168 59.6326 3.66879C64.6828 6.32079 68.9322 10.2745 71.9411 15.1205C74.9499 19.9666 76.6087 25.5288 76.7457 31.2313C76.8827 36.9338 75.493 42.5692 72.7204 47.5542C69.9477 52.5391 65.893 56.6924 60.9761 59.5838C56.0591 62.4753 50.4586 63.9999 44.7545 63.9998Z" fill="#890C25"></path><path d="M9.77781 46.2459H7.4052C7.05945 46.2459 6.72787 46.1086 6.48339 45.8641C6.23891 45.6196 6.10156 45.2881 6.10156 44.9423C6.10156 44.5966 6.23891 44.265 6.48339 44.0205C6.72787 43.776 7.05945 43.6387 7.4052 43.6387H9.77781C10.1236 43.6387 10.4551 43.776 10.6996 44.0205C10.9441 44.265 11.0814 44.5966 11.0814 44.9423C11.0814 45.2881 10.9441 45.6196 10.6996 45.8641C10.4551 46.1086 10.1236 46.2459 9.77781 46.2459Z" fill="#890C25"></path><path d="M15.547 23.4767C15.3275 23.4742 15.1122 23.4166 14.9207 23.3093C14.7292 23.2019 14.5677 23.0483 14.4509 22.8624C14.3342 22.6764 14.266 22.4642 14.2525 22.2451C14.239 22.026 14.2807 21.807 14.3737 21.6082L16.1815 17.8277C16.2551 17.673 16.3584 17.5344 16.4856 17.4197C16.6128 17.305 16.7613 17.2164 16.9227 17.1591C17.0842 17.1018 17.2553 17.0769 17.4263 17.0857C17.5974 17.0945 17.765 17.137 17.9196 17.2106C18.0743 17.2842 18.2129 17.3876 18.3276 17.5148C18.4423 17.6419 18.5309 17.7905 18.5882 17.9519C18.6454 18.1133 18.6704 18.2844 18.6616 18.4555C18.6527 18.6265 18.6103 18.7941 18.5367 18.9488L16.729 22.738C16.6212 22.9597 16.4532 23.1466 16.2442 23.2773C16.0351 23.4079 15.7935 23.477 15.547 23.4767Z" fill="#890C25"></path></svg>