<svg xmlns="http://www.w3.org/2000/svg" width="72" height="65" viewBox="0 0 72 65" fill="none"><path d="M42 14C42 17.375 39.25 20 36 20C32.625 20 30 17.375 30 14C30 10.75 32.625 8 36 8C39.25 8 42 10.75 42 14ZM36 10C33.75 10 32 11.875 32 14C32 16.25 33.75 18 36 18C38.125 18 40 16.25 40 14C40 11.875 38.125 10 36 10ZM34.125 39C30.125 34 21 21.875 21 15C21 6.75 27.625 0 36 0C44.25 0 51 6.75 51 15C51 21.875 41.75 34 37.75 39C36.875 40.25 35 40.25 34.125 39ZM47.625 20.25C48.5 18.125 49 16.375 49 15C49 7.875 43.125 2 36 2C28.75 2 23 7.875 23 15C23 16.375 23.375 18.125 24.25 20.25C25.125 22.25 26.375 24.5 27.75 26.75C30.375 31.125 33.625 35.375 35.625 37.75C35.75 38 36.125 38 36.25 37.75C38.25 35.375 41.5 31.125 44.125 26.75C45.5 24.5 46.75 22.25 47.625 20.25ZM53.125 22.5C53.25 22.125 53.5 21.75 53.625 21.25L66.625 16.625C69.125 15.625 72 17.625 72 20.375V53C72 54.625 70.875 56.125 69.25 56.75L49.25 64C49.125 64.125 48.875 64.125 48.625 64L23 56.125L5.25 62.5C2.75 63.5 0 61.5 0 58.75V26.125C0 24.5 1 23 2.625 22.375L17.125 17.125C17.25 17.75 17.375 18.375 17.5 19.125L3.25 24.25C2.5 24.625 2 25.375 2 26.125V58.75C2 60.125 3.375 61.125 4.625 60.625L22 54.375V37C22 36.5 22.375 36 23 36C23.5 36 24 36.5 24 37V54.375L48 61.75V37C48 36.5 48.375 36 49 36C49.5 36 50 36.5 50 37V61.625L68.625 54.875C69.375 54.5 70 53.75 70 53V20.375C70 19 68.5 18 67.25 18.5L52.625 23.75C52.75 23.375 53 23 53.125 22.5Z" fill="#890C25"></path></svg>