<svg xmlns="http://www.w3.org/2000/svg" width="65" height="65" viewBox="0 0 65 65" fill="none"><path d="M61.625 45C63.25 45.75 64.25 47.625 63.875 49.375L60.875 62C60.5 63.875 59 65 57.125 65C25.625 65 0 39.375 0 7.875C0 6 1.125 4.5 3 4.125L15.5 1.125C17.375 0.75 19.25 1.75 20 3.375L25.875 17C26.5 18.625 26.125 20.5 24.75 21.5L18 27C22.25 35.75 29.25 42.75 38 47L43.5 40.25C44.5 38.875 46.375 38.5 48 39.125L61.625 45ZM61.875 49C62.125 48.125 61.625 47.125 60.75 46.75L47.25 41C46.5 40.625 45.5 40.875 45 41.5L38.5 49.5C36.625 48.625 23.375 43.25 15.5 26.5L23.5 20C24.125 19.5 24.375 18.625 24 17.75L18.25 4.25C17.875 3.375 16.875 2.875 16 3.125L3.375 6C2.5 6.25 2 7 2 7.875C2 38.25 26.75 63 57.125 63C58 63 58.75 62.5 59 61.625L61.875 49Z" fill="#890C25"></path></svg>